<svg width="22" height="21" viewBox="0 0 22 21" fill="none" xmlns="http://www.w3.org/2000/svg">
<path d="M11.2718 20.5898C6.17609 20.5898 1 19.4742 1 17.3414C1 15.4383 4.98655 14.6508 6.69048 14.4047H6.75478C6.9959 14.4047 7.20488 14.5852 7.23703 14.8313C7.2531 14.9625 7.22095 15.0938 7.14058 15.1922C7.0602 15.2906 6.94768 15.3727 6.81908 15.3891C3.26655 15.9141 1.94841 16.8656 1.94841 17.3578C1.94841 18.2766 5.58132 19.6219 11.2557 19.6219C16.9301 19.6219 20.563 18.2766 20.563 17.3578C20.563 16.8656 19.2288 15.9141 15.6442 15.3891C15.5156 15.3727 15.403 15.307 15.3227 15.1922C15.2423 15.0938 15.2101 14.9625 15.2262 14.8313C15.2584 14.5852 15.4673 14.4047 15.7085 14.4047H15.7727C17.4928 14.6508 21.5115 15.4383 21.5115 17.3414C21.5275 19.4578 16.3675 20.5898 11.2718 20.5898ZM10.9342 17.1117C10.6931 16.882 5.13123 11.5172 5.13123 6.25078C5.13123 2.80547 7.88002 0 11.2557 0C14.6314 0 17.3802 2.80547 17.3802 6.25078C17.3802 11.3695 11.8183 16.8656 11.5772 17.0953L11.2557 17.4234L10.9342 17.1117ZM11.2718 0.984375C8.42656 0.984375 6.11179 3.34688 6.11179 6.25078C6.11179 10.3688 10.0501 14.782 11.2718 16.0453C12.5096 14.7492 16.4479 10.2539 16.4479 6.25078C16.4318 3.36328 14.117 0.984375 11.2718 0.984375ZM11.2718 9.03984C9.66432 9.03984 8.36226 7.71094 8.36226 6.07031C8.36226 4.42969 9.66432 3.10078 11.2718 3.10078C12.8793 3.10078 14.1813 4.42969 14.1813 6.07031C14.1813 7.71094 12.8793 9.03984 11.2718 9.03984ZM11.2718 4.08516C10.1948 4.08516 9.32675 4.97109 9.32675 6.07031C9.32675 7.16953 10.1948 8.05547 11.2718 8.05547C12.3488 8.05547 13.2169 7.16953 13.2169 6.07031C13.2169 4.97109 12.3327 4.08516 11.2718 4.08516Z" fill="#303030"/>
</svg>
