<svg width="48" height="48" viewBox="0 0 48 48" fill="none" xmlns="http://www.w3.org/2000/svg">
<path d="M12.5995 10H21.2848M14.7534 24H21.913M40 32H16L12 6H6M21.2848 10L21.913 24M21.2848 10H32.3478M21.913 24H32.3478M32.3478 24H38L42 10H32.3478M32.3478 24V10M18 40C18 41.1046 17.1046 42 16 42C14.8954 42 14 41.1046 14 40C14 38.8954 14.8954 38 16 38C17.1046 38 18 38.8954 18 40ZM40 40C40 41.1046 39.1046 42 38 42C36.8954 42 36 41.1046 36 40C36 38.8954 36.8954 38 38 38C39.1046 38 40 38.8954 40 40Z" stroke="#2D2D2D" stroke-width="3" stroke-linecap="round" stroke-linejoin="round"/>
<path d="M14.6094 16.6957H39.6529" stroke="#2D2D2D" stroke-width="2"/>
</svg>
