<svg width="23" height="23" viewBox="0 0 23 23" fill="none" xmlns="http://www.w3.org/2000/svg">
<path d="M6.03728 4.79167H10.199M7.06935 11.5H10.5M19.1667 15.3333H7.66667L5.75 2.875H2.875M10.199 4.79167L10.5 11.5M10.199 4.79167H15.5M10.5 11.5H15.5M15.5 11.5H18.2083L20.125 4.79167H15.5M15.5 11.5V4.79167M8.625 19.1667C8.625 19.696 8.19593 20.125 7.66667 20.125C7.1374 20.125 6.70833 19.696 6.70833 19.1667C6.70833 18.6374 7.1374 18.2083 7.66667 18.2083C8.19593 18.2083 8.625 18.6374 8.625 19.1667ZM19.1667 19.1667C19.1667 19.696 18.7376 20.125 18.2083 20.125C17.679 20.125 17.25 19.696 17.25 19.1667C17.25 18.6374 17.679 18.2083 18.2083 18.2083C18.7376 18.2083 19.1667 18.6374 19.1667 19.1667Z" stroke="#2D2D2D" stroke-width="2" stroke-linecap="round" stroke-linejoin="round"/>
<path d="M7 8H19" stroke="#2D2D2D" stroke-width="2"/>
</svg>
