<svg width="19" height="19" viewBox="0 0 19 19" fill="none" xmlns="http://www.w3.org/2000/svg">
<path d="M16.8787 9.41028L10.141 16.1478C9.70689 16.5819 9.20863 16.9052 8.67574 17.1213C7.87681 17.4453 6.99969 17.5269 6.16139 17.3644C5.32283 17.2019 4.52657 16.7985 3.87556 16.1478C3.44176 15.714 3.11868 15.2157 2.9023 14.6826C2.57837 13.8837 2.49673 13.0065 2.65923 12.1685C2.82199 11.3299 3.22515 10.5337 3.8756 9.88272L11.4136 2.34469C11.6786 2.07995 11.9814 1.88342 12.3056 1.75209C12.7917 1.55474 13.3267 1.50509 13.8368 1.60388C14.3478 1.70322 14.8313 1.94788 15.2283 2.34469C15.493 2.60943 15.6893 2.91217 15.8209 3.23662C16.0182 3.72245 16.0679 4.2572 15.9688 4.7679C15.8698 5.2786 15.6251 5.7618 15.2283 6.15942L7.91459 13.4731C7.82055 13.5669 7.71512 13.635 7.60153 13.6813C7.4319 13.75 7.24302 13.7679 7.06363 13.7331C6.88372 13.6977 6.71647 13.6134 6.57564 13.4731C6.48161 13.3791 6.4137 13.2739 6.36772 13.1603C6.29851 12.9907 6.28081 12.8015 6.31569 12.6224C6.35083 12.4427 6.43537 12.2752 6.57564 12.1344L13.0891 5.62071L11.9901 4.52164L5.47635 11.0351C5.2338 11.2776 5.04941 11.5614 4.92709 11.8631C4.74374 12.3156 4.69828 12.8084 4.78972 13.2808C4.8806 13.7532 5.11205 14.2081 5.47635 14.5721C5.71916 14.8152 6.00264 14.9996 6.30408 15.1217C6.75688 15.3053 7.24936 15.3505 7.72202 15.2591C8.19413 15.1682 8.64935 14.937 9.01365 14.5721L16.3276 7.25868C16.7411 6.84495 17.0539 6.36386 17.2615 5.8516C17.573 5.08281 17.6505 4.24425 17.4951 3.44057C17.34 2.63741 16.9485 1.86594 16.3277 1.24536C15.9139 0.831891 15.4328 0.519096 14.9205 0.311469C14.1517 -0.00028671 13.3132 -0.0774371 12.5095 0.077643C11.7063 0.232983 10.9349 0.624524 10.3143 1.2454L2.7765 8.78361C2.1934 9.3659 1.75406 10.0428 1.46186 10.7635C1.02334 11.8454 0.913939 13.026 1.13296 14.1576C1.35146 15.2886 1.90175 16.3729 2.77653 17.2471C3.35908 17.8302 4.03569 18.2695 4.75669 18.5617C5.83828 19 7.01925 19.1094 8.15053 18.8906C9.28155 18.6719 10.3658 18.1218 11.24 17.247L17.9778 10.5093L16.8787 9.41028Z" fill="white"/>
</svg>
