<svg width="23" height="22" viewBox="0 0 23 22" fill="none" xmlns="http://www.w3.org/2000/svg">
<g clip-path="url(#clip0_290_47)">
<path d="M18.9297 15.3535C18.4174 14.8133 17.8001 14.5494 17.0119 14.5494H15.3513L14.261 13.5443C13.4598 14.1725 12.4878 14.5369 11.4369 14.5369C10.4518 14.5369 9.51914 14.2102 8.75729 13.6448L7.78524 14.5369H6.05695C5.17689 14.5369 4.49385 14.8259 3.9553 15.4164C2.3922 17.1502 2.6549 20.8567 2.77312 22.0001H20.2694C20.3614 20.8441 20.519 17.0497 18.9297 15.3535Z" fill="#2D2D2D"/>
<path d="M6.88479 7.48828C6.56954 7.73957 6.35938 8.14162 6.35938 8.6065C6.35938 9.29753 6.83225 9.86292 7.43647 9.96343C7.56783 11.0063 8.01443 11.9235 8.68433 12.6019C8.82877 12.7401 8.97326 12.8783 9.13089 12.9914C9.32796 13.1422 9.53808 13.2678 9.76138 13.3809C10.2605 13.6321 10.8122 13.7704 11.4033 13.7704C11.9944 13.7704 12.5461 13.6321 13.0452 13.3809C13.2685 13.2678 13.4787 13.1422 13.6757 12.9914C13.8334 12.8783 13.9778 12.7401 14.1223 12.6019C14.7791 11.9235 15.2388 11.0188 15.357 9.976C15.3702 9.976 15.3833 9.976 15.3964 9.976C16.0927 9.976 16.6443 9.36035 16.6443 8.6065C16.6443 8.14162 16.4341 7.73957 16.1189 7.48828H6.88479Z" fill="#2D2D2D"/>
<path d="M16.2011 4.8498C15.7939 3.55569 14.7168 2.23644 13.3508 1.55797V4.51057V4.91262C13.3508 4.93775 13.3508 4.95032 13.3508 4.96288C13.3376 5.10109 13.3114 5.22673 13.2457 5.35237C13.0749 5.66648 12.7334 5.89263 12.3394 5.89263H12.1292H10.6843C10.3165 5.89263 9.98812 5.70417 9.8174 5.42776C9.73859 5.31468 9.69918 5.18908 9.67291 5.05083C9.65978 5.00057 9.65978 4.96288 9.65978 4.91262V4.56082V1.54541C8.2937 2.23644 7.21661 3.55569 6.80941 4.8498L6.71746 5.12621H5.96875V6.69674H6.79628H7.95218H8.43819H14.7695H15.2423H17.0323V6.62136V5.12621H16.2932L16.2011 4.8498Z" fill="#2D2D2D"/>
<path d="M10.6799 5.50313H12.3218C12.5582 5.50313 12.7552 5.37749 12.8603 5.18902C12.9129 5.10108 12.9391 5.01313 12.9391 4.91261V4.79953V4.33466V1.3695V0.942317V0.778982C12.9391 0.678468 12.9129 0.590519 12.8866 0.502569C12.7684 0.213592 12.4663 0 12.1248 0H10.6799C10.3646 0 10.1019 0.226156 10.0756 0.515133C10.0756 0.540262 10.0625 0.56539 10.0625 0.590519V0.942317V1.3695V4.38491V4.86236V4.91261C10.0625 5.03825 10.1019 5.15133 10.1676 5.25185C10.2858 5.40262 10.4697 5.50313 10.6799 5.50313Z" fill="#2D2D2D"/>
</g>
<defs>
<clipPath id="clip0_290_47">
<rect width="23" height="22" fill="white"/>
</clipPath>
</defs>
</svg>
