<svg width="48" height="46" viewBox="0 0 48 46" fill="none" xmlns="http://www.w3.org/2000/svg">
<g clip-path="url(#clip0_303_652)">
<path d="M39.5028 32.1027C38.4337 30.9731 37.1454 30.4214 35.5006 30.4214H32.0349L29.7596 28.3198C28.0874 29.6334 26.0589 30.3952 23.8658 30.3952C21.8098 30.3952 19.8635 29.7122 18.2735 28.53L16.2449 30.3952H12.6381C10.8014 30.3952 9.37592 30.9994 8.252 32.2342C4.98987 35.8595 5.53812 43.6094 5.78484 46.0001H42.2988C42.4908 43.583 42.8198 35.6493 39.5028 32.1027Z" fill="#2D2D2D"/>
<path d="M14.366 15.6572C13.7081 16.1826 13.2695 17.0233 13.2695 17.9953C13.2695 19.4402 14.2564 20.6224 15.5174 20.8325C15.7915 23.013 16.7236 24.9308 18.1216 26.3494C18.4231 26.6384 18.7246 26.9273 19.0536 27.1638C19.4648 27.479 19.9034 27.7417 20.3694 27.9782C21.4111 28.5035 22.5623 28.7925 23.796 28.7925C25.0296 28.7925 26.181 28.5035 27.2226 27.9782C27.6886 27.7417 28.1272 27.479 28.5384 27.1638C28.8674 26.9273 29.1689 26.6384 29.4704 26.3494C30.8411 24.9309 31.8005 23.0393 32.0473 20.8588C32.0748 20.8588 32.1021 20.8588 32.1295 20.8588C33.5825 20.8588 34.7337 19.5716 34.7337 17.9953C34.7337 17.0233 34.2951 16.1826 33.6372 15.6572H14.366Z" fill="#2D2D2D"/>
<path d="M33.8116 10.1404C32.9618 7.43451 30.7139 4.67609 27.863 3.25747V9.43108V10.2717C27.863 10.3243 27.863 10.3505 27.863 10.3768C27.8356 10.6658 27.7807 10.9285 27.6438 11.1912C27.2873 11.848 26.5746 12.3208 25.7523 12.3208H25.3137H22.2982C21.5307 12.3208 20.8453 11.9268 20.489 11.3488C20.3245 11.1124 20.2423 10.8498 20.1875 10.5607C20.16 10.4556 20.16 10.3768 20.16 10.2717V9.53616V3.2312C17.3091 4.67609 15.0613 7.43451 14.2115 10.1404L14.0196 10.7183H12.457V14.0022H14.184H16.5964H17.6106H30.8237H31.8106H35.5463V13.8445V10.7183H34.0036L33.8116 10.1404Z" fill="#2D2D2D"/>
<path d="M22.2884 11.5065H25.715C26.2084 11.5065 26.6196 11.2438 26.8389 10.8498C26.9486 10.6659 27.0034 10.482 27.0034 10.2718V10.0354V9.06338V2.8635V1.9703V1.62878C27.0034 1.41862 26.9486 1.23472 26.8938 1.05083C26.6471 0.446601 26.0166 0 25.3039 0H22.2884C21.6305 0 21.0822 0.472872 21.0274 1.0771C21.0274 1.12964 21 1.18218 21 1.23472V1.9703V2.8635V9.16846V10.1667V10.2718C21 10.5345 21.0822 10.771 21.2193 10.9811C21.4661 11.2964 21.8498 11.5065 22.2884 11.5065Z" fill="#2D2D2D"/>
</g>
<defs>
<clipPath id="clip0_303_652">
<rect width="48" height="46" fill="white"/>
</clipPath>
</defs>
</svg>
