<svg width="24" height="24" viewBox="0 0 24 24" fill="none" xmlns="http://www.w3.org/2000/svg">
<path d="M11.5594 4.56209C11.3772 3.85901 10.7428 3.36804 10.0162 3.36804H4.5473C4.10686 3.36804 3.74986 3.7249 3.74986 4.16496V11.7116H0.797203C0.357 11.7116 0 12.0685 0 12.5089V17.8994H0.899063C1.10278 16.5658 2.25727 15.541 3.64673 15.541C5.0362 15.541 6.19064 16.5658 6.39455 17.8994H8.77402C8.97769 16.5658 10.1322 15.541 11.5216 15.541C12.9111 15.541 14.0656 16.5658 14.2695 17.8994H14.7185V11.7116H13.413L11.5594 4.56209ZM5.99977 11.243V5.61762H9.50878L10.9672 11.243L5.99977 11.243Z" fill="#2D2D2D"/>
<path d="M17.0623 17.7118V3.27429H15.2812V18.9304H24V17.7118H17.0623Z" fill="#2D2D2D"/>
<path d="M3.64692 15.9163C2.31895 15.9163 1.24219 16.993 1.24219 18.3208C1.24219 19.6489 2.319 20.7257 3.64692 20.7257C4.97522 20.7257 6.05161 19.6489 6.05161 18.3208C6.05166 16.993 4.97522 15.9163 3.64692 15.9163ZM3.64692 19.1459C3.19148 19.1459 2.8222 18.7766 2.8222 18.3208C2.8222 17.8657 3.19153 17.4964 3.64692 17.4964C4.10269 17.4964 4.47164 17.8657 4.47164 18.3208C4.47164 18.7766 4.10269 19.1459 3.64692 19.1459Z" fill="#2D2D2D"/>
<path d="M11.5219 15.9163C10.194 15.9163 9.11719 16.993 9.11719 18.3208C9.11719 19.6489 10.194 20.7257 11.5219 20.7257C12.8502 20.7257 13.9267 19.6489 13.9267 18.3208C13.9267 16.993 12.8502 15.9163 11.5219 15.9163ZM11.5219 19.1459C11.0665 19.1459 10.6972 18.7766 10.6972 18.3208C10.6972 17.8657 11.0665 17.4964 11.5219 17.4964C11.9777 17.4964 12.3466 17.8657 12.3466 18.3208C12.3466 18.7766 11.9777 19.1459 11.5219 19.1459Z" fill="#2D2D2D"/>
<path d="M23.9063 12.2554H18.0938V16.9428H23.9063V12.2554Z" fill="#2D2D2D"/>
<path d="M23.9063 6.63025H18.0938V11.3177H23.9063V6.63025Z" fill="#2D2D2D"/>
</svg>
