<svg width="49" height="49" viewBox="0 0 49 49" fill="none" xmlns="http://www.w3.org/2000/svg">
<path d="M23.6005 9.31443C23.2284 7.87898 21.9331 6.87659 20.4498 6.87659H9.28406C8.38484 6.87659 7.65596 7.60517 7.65596 8.50364V23.9114H1.62762C0.728875 23.9114 0 24.6399 0 25.5391V36.5447H1.83559C2.25151 33.822 4.60858 31.7297 7.44542 31.7297C10.2822 31.7297 12.6392 33.822 13.0555 36.5447H17.9136C18.3294 33.822 20.6865 31.7297 23.5233 31.7297C26.3602 31.7297 28.7173 33.822 29.1335 36.5447H30.0502V23.9114H27.385L23.6005 9.31443ZM12.2495 22.9546V11.4695H19.4138L22.3913 22.9547L12.2495 22.9546Z" fill="#2D2D2D"/>
<path d="M34.8355 36.1617V6.68506H31.1992V38.6496H49V36.1617H34.8355Z" fill="#2D2D2D"/>
<path d="M7.44482 32.4956C4.73355 32.4956 2.53516 34.694 2.53516 37.4049C2.53516 40.1164 4.73365 42.3149 7.44482 42.3149C10.1568 42.3149 12.3544 40.1164 12.3544 37.4049C12.3545 34.694 10.1568 32.4956 7.44482 32.4956ZM7.44482 39.0895C6.51497 39.0895 5.76102 38.3354 5.76102 37.4049C5.76102 36.4758 6.51507 35.7218 7.44482 35.7218C8.37534 35.7218 9.12862 36.4758 9.12862 37.4049C9.12862 38.3354 8.37534 39.0895 7.44482 39.0895Z" fill="#2D2D2D"/>
<path d="M23.5229 32.4956C20.8118 32.4956 18.6133 34.694 18.6133 37.4049C18.6133 40.1164 20.8118 42.3149 23.5229 42.3149C26.2349 42.3149 28.4326 40.1164 28.4326 37.4049C28.4326 34.694 26.2349 32.4956 23.5229 32.4956ZM23.5229 39.0895C22.5931 39.0895 21.8391 38.3354 21.8391 37.4049C21.8391 36.4758 22.5931 35.7218 23.5229 35.7218C24.4536 35.7218 25.2067 36.4758 25.2067 37.4049C25.2067 38.3354 24.4535 39.0895 23.5229 39.0895Z" fill="#2D2D2D"/>
<path d="M48.8088 25.0214H36.9414V34.5916H48.8088V25.0214Z" fill="#2D2D2D"/>
<path d="M48.8088 13.5369H36.9414V23.1072H48.8088V13.5369Z" fill="#2D2D2D"/>
</svg>
