<svg width="45" height="52" viewBox="0 0 45 52" fill="none" xmlns="http://www.w3.org/2000/svg">
<path d="M9.088 22.4578C9.088 22.4578 9.98492 18.839 6.97034 15.7025C3.94431 12.5603 0.144566 12.5489 0.144566 12.5489C0.144566 12.5489 -0.80107 16.7984 2.14473 19.8607C5.08767 22.9145 9.088 22.4578 9.088 22.4578Z" fill="#AE8B5A"/>
<path d="M15.7612 21.8014C15.7612 21.8014 19.2944 19.8921 19.9421 15.6968C20.5925 11.5129 17.3631 8.5676 17.3631 8.5676C17.3631 8.5676 14.2682 10.7594 13.6006 15.0575C12.9386 19.3584 15.7612 21.8014 15.7612 21.8014Z" fill="#AE8B5A"/>
<path d="M21.075 32.3582C21.075 32.3582 24.3303 29.998 24.4249 25.7599C24.5108 21.5274 20.926 19.0302 20.926 19.0302C20.926 19.0302 18.1435 21.5988 18.049 25.9511C17.9544 30.3005 21.075 32.3582 21.075 32.3582Z" fill="#AE8B5A"/>
<path d="M31.7411 31.5734C31.4316 27.3524 27.6261 25.2005 27.6261 25.2005C27.6261 25.2005 25.0987 28.0173 25.4139 32.3582C25.7291 36.6991 29.0303 38.4543 29.0303 38.4543C29.0303 38.4543 32.0477 35.7972 31.7411 31.5734Z" fill="#AE8B5A"/>
<path d="M39.0243 43.717C39.0243 43.717 41.1534 40.3179 39.6376 36.3538C38.1217 32.3925 33.852 31.4221 33.852 31.4221C33.852 31.4221 32.2444 34.8526 33.7975 38.9195C35.3564 42.9807 39.0243 43.717 39.0243 43.717Z" fill="#AE8B5A"/>
<path d="M10.5601 13.1882C10.5601 13.1882 13.3283 10.6795 12.5632 6.39858C11.7981 2.12049 8.64881 0 8.64881 0C8.64881 0 5.49382 3.01949 6.23887 7.19484C6.98391 11.3616 10.5601 13.1882 10.5601 13.1882Z" fill="#AE8B5A"/>
<path d="M12.7334 30.6687C12.7334 30.6687 12.5213 26.9443 8.71011 24.8323C4.89031 22.7261 1.25391 23.8192 1.25391 23.8192C1.25391 23.8192 1.60924 28.1601 5.32874 30.2178C9.05398 32.2755 12.7334 30.6687 12.7334 30.6687Z" fill="#AE8B5A"/>
<path d="M19.1656 37.8949C19.1656 37.8949 18.1282 34.3132 13.9416 33.0974C9.74644 31.8816 6.44531 33.7538 6.44531 33.7538C6.44531 33.7538 7.76634 37.9063 11.8498 39.0936C15.9389 40.2837 19.1656 37.8949 19.1656 37.8949Z" fill="#AE8B5A"/>
<path d="M26.3627 43.0434C26.3627 43.0434 24.288 39.944 19.9266 40.0496C15.5595 40.1552 12.9805 42.9321 12.9805 42.9321C12.9805 42.9321 15.5022 46.4996 19.7518 46.394C24.0072 46.297 26.3627 43.0434 26.3627 43.0434Z" fill="#AE8B5A"/>
<path d="M29.4317 45.144C25.1104 45.7747 22.8867 48.837 22.8867 48.837C22.8867 48.837 25.8125 52.0791 30.0248 51.4712C34.2401 50.8605 36.1801 47.3558 36.1801 47.3558C36.1801 47.3558 33.7501 44.5247 29.4317 45.144Z" fill="#AE8B5A"/>
<path d="M11.9866 15.3172L9.90333 15.2344C9.8976 15.4628 9.37893 37.9377 43.4305 48.0693L44.0265 46.0829C11.6026 36.4337 11.9493 16.1705 11.9866 15.3172Z" fill="#AE8B5A"/>
</svg>
