<svg width="21" height="24" viewBox="0 0 21 24" fill="none" xmlns="http://www.w3.org/2000/svg">
<path d="M4.15414 10.2654C4.15414 10.2654 4.56413 8.61126 3.18616 7.17756C1.80295 5.74124 0.0660816 5.73602 0.0660816 5.73602C0.0660816 5.73602 -0.366171 7.6785 0.980362 9.07829C2.32558 10.4742 4.15414 10.2654 4.15414 10.2654Z" fill="#AE8B5A"/>
<path d="M7.20157 9.96538C7.20157 9.96538 8.81662 9.09263 9.11265 7.17494C9.40999 5.26247 7.93378 3.91617 7.93378 3.91617C7.93378 3.91617 6.51913 4.91806 6.21394 6.88272C5.91136 8.84868 7.20157 9.96538 7.20157 9.96538Z" fill="#AE8B5A"/>
<path d="M9.63417 14.791C9.63417 14.791 11.1222 13.7121 11.1654 11.7749C11.2047 9.84021 9.56606 8.69873 9.56606 8.69873C9.56606 8.69873 8.29419 9.87283 8.25096 11.8623C8.20774 13.8504 9.63417 14.791 9.63417 14.791Z" fill="#AE8B5A"/>
<path d="M14.5062 14.4323C14.3647 12.5029 12.6252 11.5192 12.6252 11.5192C12.6252 11.5192 11.4699 12.8068 11.614 14.791C11.7581 16.7753 13.267 17.5776 13.267 17.5776C13.267 17.5776 14.6463 16.363 14.5062 14.4323Z" fill="#AE8B5A"/>
<path d="M17.839 19.983C17.839 19.983 18.8122 18.4293 18.1193 16.6173C17.4264 14.8066 15.4747 14.363 15.4747 14.363C15.4747 14.363 14.7399 15.9311 15.4498 17.7901C16.1624 19.6464 17.839 19.983 17.839 19.983Z" fill="#AE8B5A"/>
<path d="M4.832 6.02834C4.832 6.02834 6.09732 4.88163 5.74759 2.92481C5.39786 0.969282 3.95833 0 3.95833 0C3.95833 0 2.51617 1.38022 2.85674 3.28878C3.1973 5.19342 4.832 6.02834 4.832 6.02834Z" fill="#AE8B5A"/>
<path d="M5.8176 14.0189C5.8176 14.0189 5.72067 12.3164 3.97856 11.3511C2.23252 10.3883 0.570312 10.8879 0.570312 10.8879C0.570312 10.8879 0.732735 12.8722 2.43293 13.8127C4.13574 14.7533 5.8176 14.0189 5.8176 14.0189Z" fill="#AE8B5A"/>
<path d="M8.75977 17.3217C8.75977 17.3217 8.2856 15.6845 6.3719 15.1288C4.45427 14.573 2.94531 15.4288 2.94531 15.4288C2.94531 15.4288 3.54916 17.3269 5.4157 17.8696C7.28487 18.4136 8.75977 17.3217 8.75977 17.3217Z" fill="#AE8B5A"/>
<path d="M12.0506 19.6754C12.0506 19.6754 11.1023 18.2587 9.10869 18.3069C7.11247 18.3552 5.93359 19.6245 5.93359 19.6245C5.93359 19.6245 7.08627 21.2552 9.02879 21.207C10.9739 21.1626 12.0506 19.6754 12.0506 19.6754Z" fill="#AE8B5A"/>
<path d="M13.4527 20.6355C11.4774 20.9238 10.4609 22.3235 10.4609 22.3235C10.4609 22.3235 11.7983 23.8055 13.7238 23.5277C15.6506 23.2485 16.5374 21.6465 16.5374 21.6465C16.5374 21.6465 15.4266 20.3524 13.4527 20.6355Z" fill="#AE8B5A"/>
<path d="M5.48006 7.00152L4.52779 6.96368C4.52517 7.06805 4.28809 17.3414 19.8531 21.9726L20.1256 21.0646C5.30454 16.6539 5.46303 7.39158 5.48006 7.00152Z" fill="#AE8B5A"/>
</svg>
