<svg width="799" height="798" viewBox="0 0 799 798" fill="none" xmlns="http://www.w3.org/2000/svg">
<path d="M488 398.5H108M108 398.5L210.308 311M108 398.5L210.308 486" stroke="white" stroke-width="50" stroke-linecap="round" stroke-linejoin="round"/>
<path d="M312 252.762C312.354 189.355 315.174 155.016 337.637 132.616C363.326 107 404.67 107 487.357 107H516.592C599.279 107 640.626 107 666.311 132.616C692 158.231 692 199.459 692 281.915V515.135C692 597.59 692 638.817 666.311 664.433C643.848 686.834 609.412 689.647 545.821 690M312 544.287C312.354 607.694 315.174 642.032 337.637 664.433C356.386 683.129 383.472 688.181 428.882 689.545" stroke="white" stroke-width="50" stroke-linecap="round"/>
</svg>
