<svg width="22" height="20" viewBox="0 0 22 20" fill="none" xmlns="http://www.w3.org/2000/svg">
<path d="M9.0872 14.6667H5.82937C4.86908 14.6667 4.38893 14.6667 4.02215 14.485C3.69952 14.3252 3.43721 14.0703 3.27283 13.7567C3.08594 13.4002 3.08594 12.9334 3.08594 12V5.66667C3.08594 4.73325 3.08594 4.26653 3.27283 3.91002C3.43721 3.59641 3.69952 3.34144 4.02215 3.18166C4.38893 3 4.86908 3 5.82937 3H15.7743C16.7346 3 17.2148 3 17.5816 3.18166C17.9042 3.34144 18.1665 3.59641 18.3309 3.91002C18.5178 4.26653 18.5178 4.73325 18.5178 5.66667V7.16667M18.1806 5.71857L13.8453 8.52792C12.7453 9.24067 12.1953 9.59708 11.6009 9.73558C11.0755 9.85792 10.5278 9.85792 10.0026 9.73558C9.4081 9.59708 8.85811 9.24067 7.75813 8.52792L3.21236 5.58219M12.5165 16.3333L14.2526 15.9958C14.4039 15.9664 14.4796 15.9517 14.5501 15.9248C14.6128 15.9009 14.6724 15.8699 14.7275 15.8325C14.7898 15.7903 14.8443 15.7373 14.9535 15.6312L18.5178 12.1667C18.9913 11.7064 18.9913 10.9602 18.5178 10.5C18.0443 10.0397 17.2766 10.0397 16.8031 10.5L13.2389 13.9645C13.1296 14.0707 13.0751 14.1237 13.0317 14.1842C12.9932 14.2377 12.9614 14.2957 12.9368 14.3566C12.9091 14.4252 12.894 14.4988 12.8637 14.6458L12.5165 16.3333Z" stroke="#303030" stroke-linecap="round" stroke-linejoin="round"/>
</svg>
