<svg width="21" height="20" viewBox="0 0 21 20" fill="none" xmlns="http://www.w3.org/2000/svg">
<path d="M8.75 15.8333H5.425C4.44491 15.8333 3.95486 15.8333 3.58052 15.6517C3.25123 15.4919 2.98351 15.2369 2.81574 14.9233C2.625 14.5668 2.625 14.1001 2.625 13.1667V6.83333C2.625 5.89991 2.625 5.4332 2.81574 5.07668C2.98351 4.76307 3.25123 4.50811 3.58052 4.34832C3.95486 4.16666 4.44491 4.16666 5.425 4.16666H15.575C16.5551 4.16666 17.0452 4.16666 17.4195 4.34832C17.7488 4.50811 18.0165 4.76307 18.1842 5.07668C18.375 5.4332 18.375 5.89991 18.375 6.83333V8.33333M18.0309 6.88524L13.6062 9.69458C12.4835 10.4073 11.9222 10.7637 11.3155 10.9022C10.7793 11.0246 10.2203 11.0246 9.68424 10.9022C9.07751 10.7637 8.51619 10.4073 7.39353 9.69458L2.75403 6.74886M12.25 17.5L14.0219 17.1625C14.1763 17.1331 14.2536 17.1183 14.3256 17.0914C14.3895 17.0676 14.4504 17.0366 14.5066 16.9992C14.5701 16.957 14.6258 16.904 14.7373 16.7978L18.375 13.3333C18.8583 12.8731 18.8583 12.1269 18.375 11.6667C17.8917 11.2064 17.1083 11.2064 16.625 11.6667L12.9873 15.1312C12.8758 15.2373 12.8201 15.2903 12.7759 15.3508C12.7366 15.4044 12.704 15.4623 12.679 15.5232C12.6507 15.5918 12.6353 15.6654 12.6044 15.8125L12.25 17.5Z" stroke="white" stroke-linecap="round" stroke-linejoin="round"/>
</svg>
