<svg width="22" height="22" viewBox="0 0 22 22" fill="none" xmlns="http://www.w3.org/2000/svg">
<g clip-path="url(#clip0_297_83)">
<path d="M21.3125 4.8125H0.6875C0.505164 4.8125 0.330295 4.88493 0.201364 5.01386C0.0724328 5.1428 0 5.31766 0 5.5L0 16.5C0 16.6823 0.0724328 16.8572 0.201364 16.9861C0.330295 17.1151 0.505164 17.1875 0.6875 17.1875H21.3125C21.4948 17.1875 21.6697 17.1151 21.7986 16.9861C21.9276 16.8572 22 16.6823 22 16.5V5.5C22 5.31766 21.9276 5.1428 21.7986 5.01386C21.6697 4.88493 21.4948 4.8125 21.3125 4.8125ZM17.2494 15.8125H4.75063C4.60734 14.9693 4.20551 14.1915 3.60074 13.5868C2.99598 12.982 2.21818 12.5802 1.375 12.4369V9.56313C2.21818 9.41984 2.99598 9.01801 3.60074 8.41324C4.20551 7.80848 4.60734 7.03068 4.75063 6.1875H17.2494C17.3927 7.03068 17.7945 7.80848 18.3993 8.41324C19.004 9.01801 19.7818 9.41984 20.625 9.56313V12.4369C19.7818 12.5802 19.004 12.982 18.3993 13.5868C17.7945 14.1915 17.3927 14.9693 17.2494 15.8125ZM20.625 8.15375C20.1521 8.0303 19.7206 7.78306 19.375 7.43746C19.0294 7.09186 18.7822 6.6604 18.6588 6.1875H20.625V8.15375ZM3.34125 6.1875C3.2178 6.6604 2.97055 7.09186 2.62496 7.43746C2.27936 7.78306 1.8479 8.0303 1.375 8.15375V6.1875H3.34125ZM1.375 13.8462C1.8479 13.9697 2.27936 14.2169 2.62496 14.5625C2.97055 14.9081 3.2178 15.3396 3.34125 15.8125H1.375V13.8462ZM18.6588 15.8125C18.7822 15.3396 19.0294 14.9081 19.375 14.5625C19.7206 14.2169 20.1521 13.9697 20.625 13.8462V15.8125H18.6588Z" fill="#303030"/>
<path d="M5.16253 0.488299C5.08424 0.443039 4.99778 0.413669 4.90812 0.401871C4.81847 0.390074 4.72736 0.396081 4.64003 0.419549C4.46389 0.465306 4.31308 0.579032 4.22065 0.735799L2.84565 3.09392C2.75448 3.25256 2.73006 3.44091 2.77777 3.61754C2.82547 3.79418 2.94139 3.94463 3.10003 4.0358C3.25866 4.12697 3.44701 4.15139 3.62365 4.10368C3.80028 4.05598 3.95073 3.94006 4.0419 3.78142L5.07315 2.02142L8.55878 4.0358C8.71741 4.12697 8.90576 4.15139 9.0824 4.10368C9.25903 4.05598 9.40948 3.94006 9.50065 3.78142C9.59182 3.62279 9.61624 3.43444 9.56853 3.2578C9.52083 3.08117 9.40491 2.93072 9.24628 2.83955L5.16253 0.488299Z" fill="#303030"/>
<path d="M16.838 21.5116C16.9421 21.5734 17.0607 21.6066 17.1817 21.6079C17.2409 21.6179 17.3013 21.6179 17.3605 21.6079C17.5366 21.5621 17.6874 21.4484 17.7799 21.2916L19.1549 18.9335C19.246 18.7749 19.2705 18.5865 19.2228 18.4099C19.175 18.2333 19.0591 18.0828 18.9005 17.9916C18.7419 17.9005 18.5535 17.8761 18.3769 17.9238C18.2002 17.9715 18.0498 18.0874 17.9586 18.246L16.9411 20.006L13.4555 17.9916C13.2969 17.9005 13.1085 17.8761 12.9319 17.9238C12.7552 17.9715 12.6048 18.0874 12.5136 18.246C12.4225 18.4047 12.398 18.593 12.4457 18.7696C12.4934 18.9463 12.6094 19.0967 12.768 19.1879L16.838 21.5116Z" fill="#303030"/>
<path d="M11 6.875C10.1842 6.875 9.38663 7.11693 8.70827 7.57019C8.02992 8.02345 7.50121 8.66769 7.189 9.42143C6.87679 10.1752 6.7951 11.0046 6.95426 11.8047C7.11343 12.6049 7.50629 13.3399 8.08319 13.9168C8.66008 14.4937 9.39508 14.8866 10.1953 15.0457C10.9954 15.2049 11.8248 15.1232 12.5786 14.811C13.3323 14.4988 13.9766 13.9701 14.4298 13.2917C14.8831 12.6134 15.125 11.8158 15.125 11C15.125 9.90598 14.6904 8.85677 13.9168 8.08318C13.1432 7.3096 12.094 6.875 11 6.875ZM11 13.75C10.4561 13.75 9.92442 13.5887 9.47218 13.2865C9.01995 12.9844 8.66747 12.5549 8.45933 12.0524C8.25119 11.5499 8.19673 10.9969 8.30284 10.4635C8.40895 9.93005 8.67086 9.44005 9.05546 9.05546C9.44005 8.67086 9.93006 8.40895 10.4635 8.30284C10.997 8.19673 11.5499 8.25119 12.0524 8.45933C12.5549 8.66747 12.9844 9.01995 13.2865 9.47218C13.5887 9.92442 13.75 10.4561 13.75 11C13.75 11.7293 13.4603 12.4288 12.9445 12.9445C12.4288 13.4603 11.7293 13.75 11 13.75Z" fill="#303030"/>
</g>
<defs>
<clipPath id="clip0_297_83">
<rect width="22" height="22" fill="white"/>
</clipPath>
</defs>
</svg>
