<svg width="24" height="24" viewBox="0 0 24 24" fill="none" xmlns="http://www.w3.org/2000/svg">
<path d="M1.39062 5.52612V18.4739H7.23219V5.52612H1.39062ZM5.63516 17.393C5.53317 17.393 5.43348 17.3628 5.34869 17.3061C5.2639 17.2494 5.19781 17.1689 5.15878 17.0747C5.11975 16.9805 5.10954 16.8768 5.12944 16.7768C5.14933 16.6768 5.19844 16.5849 5.27055 16.5128C5.34267 16.4407 5.43454 16.3916 5.53456 16.3717C5.63458 16.3518 5.73826 16.362 5.83248 16.401C5.9267 16.44 6.00722 16.5061 6.06388 16.5909C6.12054 16.6757 6.15078 16.7754 6.15078 16.8774C6.15078 17.0141 6.09646 17.1453 5.99976 17.242C5.90306 17.3387 5.77191 17.393 5.63516 17.393ZM6.47891 8.52612H2.13641V7.77612H6.47844L6.47891 8.52612ZM6.47891 7.02612H2.13641V6.27612H6.47844L6.47891 7.02612ZM13.6517 15.5H17.0783L17.0773 17.7239H19.0339V18.4739H11.6952V17.7239H13.6517V15.5ZM8.11953 5.52612V15.1125H22.6109V5.52612H8.11953ZM21.8609 14.3625H8.86906V6.27612H21.8609V14.3625Z" fill="#2D2D2D"/>
<path d="M1 20L24 20" stroke="#2D2D2D"/>
<path d="M3 20V24M22 20V24" stroke="#2D2D2D"/>
</svg>
