<svg width="52" height="52" viewBox="0 0 52 52" fill="none" xmlns="http://www.w3.org/2000/svg">
<g clip-path="url(#clip0_303_659)">
<path d="M3.01172 11.9731V40.0267H15.6684V11.9731H3.01172ZM12.2082 37.6847C11.9872 37.6847 11.7712 37.6192 11.5875 37.4964C11.4038 37.3737 11.2606 37.1992 11.1761 36.995C11.0915 36.7909 11.0694 36.5663 11.1125 36.3496C11.1556 36.1329 11.262 35.9338 11.4182 35.7775C11.5745 35.6213 11.7735 35.5149 11.9903 35.4718C12.207 35.4287 12.4316 35.4508 12.6357 35.5354C12.8399 35.6199 13.0144 35.7631 13.1371 35.9468C13.2599 36.1306 13.3254 36.3466 13.3254 36.5675C13.3254 36.8638 13.2077 37.148 12.9982 37.3575C12.7887 37.567 12.5045 37.6847 12.2082 37.6847ZM14.0363 18.4731H4.62758V16.8481H14.0353L14.0363 18.4731ZM14.0363 15.2231H4.62758V13.5981H14.0353L14.0363 15.2231ZM29.5774 33.5832H37.0016L36.9996 38.4017H41.2388V40.0267H25.3382V38.4017H29.5774V33.5832ZM17.591 11.9731V32.7437H48.9891V11.9731H17.591ZM47.3641 31.1187H19.215V13.5981H47.3641V31.1187Z" fill="#2D2D2D"/>
<path d="M2.16797 43.3333L52.0013 43.3333" stroke="#2D2D2D" stroke-width="2"/>
<path d="M6.5 43.3333V51.9999M47.6667 43.3333V51.9999" stroke="#2D2D2D" stroke-width="2"/>
</g>
<defs>
<clipPath id="clip0_303_659">
<rect width="52" height="52" fill="white"/>
</clipPath>
</defs>
</svg>
