<svg width="22" height="21" viewBox="0 0 22 21" fill="none" xmlns="http://www.w3.org/2000/svg">
<path d="M4.63273 6.42542C4.6137 6.06351 4.31081 5.78586 3.9562 5.80529C3.60159 5.82471 3.32956 6.13386 3.3486 6.49577L4.63273 6.42542ZM5.46078 3.07102C5.21622 3.33381 5.22668 3.74918 5.48416 3.99879C5.74164 4.24839 6.14862 4.23771 6.39319 3.97492L5.46078 3.07102ZM10.5588 17.7012C10.8594 17.894 11.2564 17.8016 11.4453 17.4948C11.6343 17.1879 11.5437 16.7828 11.243 16.5899L10.5588 17.7012ZM14.3729 17.9165C14.0253 17.8422 13.6846 18.0696 13.6118 18.4244C13.539 18.7791 13.7617 19.1269 14.1094 19.2012L14.3729 17.9165ZM14.8287 13.9661L15.2191 13.5466L14.2867 12.6427L13.8962 13.0623L14.8287 13.9661ZM16.504 13.3699L18.1419 14.3322L18.7834 13.1947L17.1455 12.2324L16.504 13.3699ZM18.458 16.3271L17.2401 17.6357L18.1726 18.5396L19.3904 17.231L18.458 16.3271ZM8.58272 14.3293C5.25962 10.7585 4.70221 7.74652 4.63273 6.42542L3.3486 6.49577C3.43369 8.11384 4.10684 11.4257 7.6503 15.2331L8.58272 14.3293ZM9.76183 8.52179L10.0078 8.25758L9.07531 7.35368L8.82941 7.61789L9.76183 8.52179ZM10.2009 4.96801L9.11982 3.40745L8.06978 4.16518L9.15086 5.72572L10.2009 4.96801ZM9.29563 8.06984C8.82941 7.61789 8.82882 7.61853 8.82822 7.61917C8.82802 7.6194 8.82742 7.62005 8.82701 7.62048C8.8262 7.62138 8.82537 7.62228 8.82453 7.6232C8.82284 7.62506 8.82109 7.62699 8.8193 7.62901C8.8157 7.63305 8.81188 7.63741 8.80787 7.64212C8.79985 7.65154 8.79104 7.6623 8.78162 7.67445C8.76277 7.69876 8.74145 7.72862 8.71908 7.7643C8.67424 7.83584 8.62559 7.93005 8.58441 8.04819C8.50064 8.28844 8.45499 8.60659 8.51203 9.0039C8.62409 9.78451 9.12525 10.8343 10.4347 12.2413L11.3671 11.3374C10.1431 10.0222 9.84165 9.21218 9.78443 8.81362C9.75683 8.62134 9.78487 8.52003 9.79597 8.48821C9.8022 8.47033 9.80628 8.46536 9.8023 8.47173C9.80036 8.47481 9.7965 8.4806 9.79002 8.48896C9.78677 8.49315 9.78287 8.49798 9.7782 8.50345C9.77587 8.50618 9.77335 8.50908 9.77063 8.51214C9.76926 8.51367 9.76785 8.51524 9.76638 8.51685C9.76565 8.51765 9.76491 8.51847 9.76414 8.51929C9.76377 8.5197 9.76318 8.52033 9.763 8.52053C9.76241 8.52116 9.76183 8.52179 9.29563 8.06984ZM10.4347 12.2413C11.7402 13.6441 12.7263 14.1957 13.4786 14.3203C13.8646 14.3843 14.1771 14.3332 14.4137 14.238C14.5294 14.1915 14.6209 14.1368 14.6896 14.0871C14.7238 14.0622 14.7524 14.0387 14.7754 14.0181C14.7869 14.0078 14.7971 13.9982 14.8059 13.9894C14.8104 13.9851 14.8144 13.9809 14.8182 13.9771C14.8201 13.9752 14.822 13.9732 14.8237 13.9714C14.8245 13.9705 14.8254 13.9696 14.8262 13.9688C14.8266 13.9683 14.8272 13.9676 14.8275 13.9675C14.8281 13.9668 14.8287 13.9661 14.3624 13.5142C13.8962 13.0623 13.8968 13.0617 13.8974 13.061C13.8976 13.0608 13.8981 13.0602 13.8986 13.0597C13.8993 13.0589 13.9001 13.0582 13.9008 13.0574C13.9023 13.0558 13.9038 13.0542 13.9052 13.0527C13.9081 13.0498 13.9108 13.047 13.9134 13.0445C13.9186 13.0394 13.9232 13.0351 13.9274 13.0314C13.9356 13.024 13.9417 13.0193 13.9456 13.0165C13.9536 13.0106 13.9528 13.0127 13.9418 13.017C13.9253 13.0237 13.8475 13.0518 13.6847 13.0248C13.3397 12.9676 12.5949 12.6567 11.3671 11.3374L10.4347 12.2413ZM9.11982 3.40745C8.25085 2.15307 6.51201 1.94144 5.46078 3.07102L6.39319 3.97492C6.84143 3.49327 7.63053 3.53111 8.06978 4.16518L9.11982 3.40745ZM17.2401 17.6357C17.0009 17.8928 16.7506 18.0305 16.5073 18.055L16.6337 19.3612C17.2741 19.2966 17.7924 18.948 18.1726 18.5396L17.2401 17.6357ZM10.0078 8.25758C10.8372 7.36623 10.8959 5.97133 10.2009 4.96801L9.15086 5.72572C9.51278 6.24816 9.45727 6.94324 9.07531 7.35368L10.0078 8.25758ZM18.1419 14.3322C18.8456 14.7456 18.9833 15.7626 18.458 16.3271L19.3904 17.231C20.5092 16.0289 20.1833 14.0171 18.7834 13.1947L18.1419 14.3322ZM15.2191 13.5466C15.5495 13.1915 16.0644 13.1117 16.504 13.3699L17.1455 12.2324C16.2037 11.6792 15.0358 11.8378 14.2867 12.6427L15.2191 13.5466ZM11.243 16.5899C10.3996 16.049 9.50202 15.3171 8.58272 14.3293L7.6503 15.2331C8.63968 16.2963 9.61988 17.099 10.5588 17.7012L11.243 16.5899ZM16.5073 18.055C16.0388 18.1023 15.2973 18.1141 14.3729 17.9165L14.1094 19.2012C15.1797 19.4299 16.0543 19.4196 16.6337 19.3612L16.5073 18.055Z" fill="#303030"/>
</svg>
