<svg width="800" height="800" viewBox="0 0 800 800" fill="none" xmlns="http://www.w3.org/2000/svg">
<path d="M366.665 133.333H239.999C202.662 133.333 183.993 133.333 169.733 140.6C157.188 146.991 146.99 157.19 140.598 169.734C133.332 183.995 133.332 202.663 133.332 240V560C133.332 597.337 133.332 616.007 140.598 630.267C146.99 642.81 157.188 653.01 169.733 659.4C183.993 666.667 202.662 666.667 239.999 666.667H559.999C597.335 666.667 616.005 666.667 630.265 659.4C642.809 653.01 653.009 642.81 659.399 630.267C666.665 616.007 666.665 597.337 666.665 560V416.667M516.665 183.333L610.945 277.614M358.755 341.243L580.365 119.634C606.399 93.5989 648.612 93.5989 674.645 119.634C700.682 145.669 700.682 187.88 674.645 213.915L445.912 442.647C420.525 468.037 407.832 480.73 393.372 490.823C380.539 499.787 366.695 507.207 352.132 512.94C335.722 519.4 318.125 522.95 282.93 530.053L266.665 533.333L268.247 522.26C273.844 483.083 276.643 463.493 283.008 445.203C288.657 428.973 296.374 413.543 305.967 399.287C316.779 383.22 330.772 369.227 358.755 341.243Z" stroke="white" stroke-width="66.6667" stroke-linecap="round" stroke-linejoin="round"/>
</svg>
