<svg width="24" height="24" viewBox="0 0 24 24" fill="none" xmlns="http://www.w3.org/2000/svg">
<path d="M4.00532 15.7992C3.24535 16.5588 2.75241 17.5263 2.59532 18.5666C2.49962 19.0871 2.46441 19.6161 2.49032 20.1439V20.9756H3.69032C4.13298 20.9743 4.57467 20.9359 5.01032 20.8609C6.10041 20.7163 7.11422 20.2443 7.90532 19.513C8.36943 19.0142 8.6079 18.36 8.56854 17.6935C8.52918 17.027 8.2152 16.4026 7.69532 15.9569C7.224 15.4746 6.57376 15.1879 5.88398 15.1585C5.1942 15.129 4.51979 15.359 4.00532 15.7992ZM6.61532 18.2798C6.09604 18.75 5.43449 19.0512 4.72532 19.1402H4.39532V18.8247C4.48842 18.1468 4.80345 17.5144 5.29532 17.018C5.39685 16.9394 5.52476 16.8986 5.65532 16.9033C5.78887 16.9084 5.92001 16.939 6.04107 16.9931C6.16212 17.0473 6.27066 17.124 6.36032 17.2188C6.54036 17.3279 6.66811 17.5006 6.71584 17.6992C6.76358 17.8979 6.72746 18.1065 6.61532 18.2798ZM21.9753 3.6254C21.9677 3.28923 21.8246 2.96886 21.5758 2.7311C21.3271 2.49334 20.992 2.35654 20.6403 2.34923C18.8843 2.21217 17.1173 2.4145 15.4448 2.94415C13.7723 3.4738 12.2285 4.31993 10.9053 5.43211L8.46032 8.15652L4.86032 7.43957C4.61478 7.38843 4.35974 7.39709 4.11862 7.46473C3.87749 7.53238 3.65801 7.65685 3.48032 7.82672L2.46032 8.80177C2.30464 8.95351 2.1862 9.13644 2.11356 9.33731C2.04092 9.53818 2.01591 9.75198 2.04032 9.96323C2.06243 10.1772 2.13458 10.3836 2.25142 10.5673C2.36826 10.7509 2.5268 10.9071 2.71532 11.0243L5.80532 12.9171L6.00032 13.0318L10.8003 17.6919L10.9203 17.8067L12.9003 20.7605C13.0229 20.9407 13.1863 21.0923 13.3785 21.2039C13.5706 21.3156 13.7865 21.3846 14.0103 21.4057H14.1753C14.5688 21.4042 14.9459 21.2548 15.2253 20.9899L16.2453 20.0149C16.423 19.845 16.5532 19.6352 16.624 19.4047C16.6948 19.1742 16.7038 18.9304 16.6503 18.6957L15.9003 15.2687L18.6603 13.0031C19.8463 11.7347 20.7514 10.25 21.3212 8.63836C21.8909 7.0267 22.1134 5.32146 21.9753 3.6254ZM4.66532 9.23194L6.64532 9.63343L5.68532 10.7089L4.18532 9.74815L4.66532 9.23194ZM14.2353 19.4126L13.2303 17.9787L14.3553 17.061L14.7753 18.9538L14.2353 19.4126ZM17.4003 11.6839L11.8803 16.1863L7.50032 11.9994L12.2103 6.72262C14.3926 4.92 17.2202 3.99501 20.1003 4.1416C20.2474 6.89393 19.2806 9.59477 17.4003 11.6839Z" fill="#303030"/>
<path d="M16.6953 9.92027C16.8592 9.75574 16.9871 9.56159 17.0715 9.34918C17.1558 9.13678 17.195 8.91042 17.1866 8.68337C17.1782 8.45632 17.1225 8.23315 17.0226 8.02696C16.9228 7.82077 16.781 7.63572 16.6053 7.48264C16.4503 7.30691 16.2589 7.1638 16.0431 7.06235C15.8273 6.9609 15.5918 6.9033 15.3516 6.89321C15.1113 6.88311 14.8715 6.92073 14.6472 7.00368C14.423 7.08664 14.2191 7.21313 14.0486 7.37519C13.878 7.53724 13.7444 7.73133 13.6563 7.9452C13.5681 8.15908 13.5273 8.3881 13.5364 8.61782C13.5455 8.84753 13.6043 9.07295 13.7091 9.27985C13.8139 9.48675 13.9624 9.67063 14.1453 9.8199C14.3055 9.98707 14.4987 10.1223 14.7138 10.2179C14.9288 10.3135 15.1615 10.3675 15.3985 10.3768C15.6355 10.3861 15.872 10.3506 16.0946 10.2722C16.3171 10.1939 16.5213 10.0743 16.6953 9.92027Z" fill="#303030"/>
</svg>
