<svg width="800" height="800" viewBox="0 0 800 800" fill="none" xmlns="http://www.w3.org/2000/svg">
<path fill-rule="evenodd" clip-rule="evenodd" d="M453.062 293.875C462.826 293.875 470.75 285.969 470.75 276.188V205.438C470.75 195.656 462.826 187.75 453.062 187.75C443.299 187.75 435.375 195.656 435.375 205.438V276.188C435.375 285.969 443.299 293.875 453.062 293.875ZM647.625 612.25C647.625 631.777 631.777 647.625 612.25 647.625H187.75C168.223 647.625 152.375 631.777 152.375 612.25V187.75C152.375 168.223 168.223 152.375 187.75 152.375H223.125V329.25C223.125 348.777 238.973 364.625 258.5 364.625H541.5C561.027 364.625 576.875 348.777 576.875 329.25V152.375H612.25C631.777 152.375 647.625 168.223 647.625 187.75V612.25ZM258.5 152.375H541.5V311.562C541.5 321.344 533.576 329.25 523.812 329.25H276.188C266.424 329.25 258.5 321.344 258.5 311.562V152.375ZM612.25 117H187.75C148.678 117 117 148.678 117 187.75V612.25C117 651.322 148.678 683 187.75 683H612.25C651.322 683 683 651.322 683 612.25V187.75C683 148.678 651.322 117 612.25 117Z" fill="white"/>
</svg>
