<svg width="798" height="798" viewBox="0 0 798 798" fill="none" xmlns="http://www.w3.org/2000/svg">
<path d="M148.629 211.304H648.376M523.44 211.304L514.988 185.972C506.795 161.423 502.697 149.149 495.101 140.075C488.392 132.061 479.777 125.858 470.045 122.035C459.022 117.705 446.072 117.705 420.167 117.705H376.839C350.933 117.705 337.983 117.705 326.961 122.035C317.229 125.858 308.613 132.061 301.904 140.075C294.307 149.149 290.211 161.423 282.019 185.972L273.566 211.304M585.908 211.304V529.54C585.908 581.961 585.908 608.169 575.694 628.193C566.711 645.805 552.378 660.122 534.746 669.095C514.7 679.298 488.463 679.298 435.984 679.298H361.022C308.543 679.298 282.304 679.298 262.26 669.095C244.629 660.122 230.294 645.805 221.31 628.193C211.097 608.169 211.097 581.961 211.097 529.54V211.304M460.971 336.102V554.499M336.034 336.102V554.499" stroke="white" stroke-width="43" stroke-linecap="round" stroke-linejoin="round"/>
</svg>
