<svg width="800" height="800" viewBox="0 0 800 800" fill="none" xmlns="http://www.w3.org/2000/svg">
<path d="M566.667 566.667H567M520 466.667H600C631.063 466.667 646.593 466.667 658.847 471.74C675.18 478.507 688.16 491.487 694.927 507.82C700 520.073 700 535.603 700 566.667C700 597.73 700 613.26 694.927 625.513C688.16 641.847 675.18 654.827 658.847 661.593C646.593 666.667 631.063 666.667 600 666.667H200C168.937 666.667 153.406 666.667 141.154 661.593C124.819 654.827 111.841 641.847 105.075 625.513C100 613.26 100 597.73 100 566.667C100 535.603 100 520.073 105.075 507.82C111.841 491.487 124.819 478.507 141.154 471.74C153.406 466.667 168.937 466.667 200 466.667H280M400 500V133.333M400 133.333L500 233.333M400 133.333L300 233.333" stroke="white" stroke-width="66.6667" stroke-linecap="round" stroke-linejoin="round"/>
</svg>
