<?xml version="1.0" encoding="UTF-8" standalone="no"?>
<svg
   xmlns:dc="http://purl.org/dc/elements/1.1/"
   xmlns:cc="http://creativecommons.org/ns#"
   xmlns:rdf="http://www.w3.org/1999/02/22-rdf-syntax-ns#"
   xmlns:svg="http://www.w3.org/2000/svg"
   xmlns="http://www.w3.org/2000/svg"
   xmlns:sodipodi="http://sodipodi.sourceforge.net/DTD/sodipodi-0.dtd"
   xmlns:inkscape="http://www.inkscape.org/namespaces/inkscape"
   inkscape:version="1.0 (4035a4fb49, 2020-05-01)"
   sodipodi:docname="logo.svg"
   id="svg11"
   version="1.1"
   fill="none"
   height="24"
   width="113">
  <metadata
     id="metadata15">
    <rdf:RDF>
      <cc:Work
         rdf:about="">
        <dc:format>image/svg+xml</dc:format>
        <dc:type
           rdf:resource="http://purl.org/dc/dcmitype/StillImage" />
      </cc:Work>
    </rdf:RDF>
  </metadata>
  <sodipodi:namedview
     inkscape:current-layer="svg11"
     inkscape:window-maximized="1"
     inkscape:window-y="-8"
     inkscape:window-x="-8"
     inkscape:cy="13.163177"
     inkscape:cx="9.9692103"
     inkscape:zoom="4.492944"
     showgrid="false"
     id="namedview13"
     inkscape:window-height="1009"
     inkscape:window-width="1920"
     inkscape:pageshadow="2"
     inkscape:pageopacity="0"
     guidetolerance="10"
     gridtolerance="10"
     objecttolerance="10"
     borderopacity="1"
     bordercolor="#666666"
     pagecolor="#ffffff" />
  <defs
     id="defs19">
    <clipPath
       id="clip0">
      <path
         d="M0 0h112v23H0z"
         fill="#fff"
         id="rect16" />
    </clipPath>
  </defs>
  <path
     style="stroke-width:0.0269044"
     fill-rule="evenodd"
     clip-rule="evenodd"
     d="M 112.98166,0.02688433 H 0.01594496 V 23.967943 H 112.98166 Z M 12.214476,4.1821519 H 4.0493885 v 4.4340545 l 5.1795913,3.8372166 z m -8.1650875,12.1423031 4.1371,-0.982548 -1.6100858,4.46784 H 4.0493885 Z M 21.072672,7.1832178 V 4.1821519 H 16.528928 L 11.545826,12.146538 Z M 13.671725,19.809828 H 6.7510521 L 9.6355757,15.198405 Z M 4.0493885,8.8189758 V 16.051409 L 8.3993522,13.785137 Z M 21.072748,12.284604 v 7.525224 h -1.913007 l -7.229049,-5.357469 z m 86.489212,2.147954 c -0.63843,-1.903123 -1.8994,-2.654824 -2.07113,-2.756154 0.63314,-0.563052 1.18146,-1.097971 1.59648,-2.2522333 l 1.86391,-5.2420188 h -5.12526 l -1.62353,6.0190391 -8.13776,0.01409 V 4.1821519 H 89.41698 V 19.801252 h 4.64769 v -6.047198 h 8.54988 l 1.69454,5.951495 0.0247,0.09289 h 5.13851 l -1.91029,-5.368696 z M 81.710409,10.330706 c 4.017205,-0.04223 5.256179,1.061345 5.32694,4.093384 v -0.0028 c 0,0 0.04926,1.714502 -0.06811,2.629477 -0.150266,1.171142 -0.957789,2.753339 -3.13574,2.750499 v 0.0057 H 69.268952 V 16.476434 H 82.602733 V 13.74 c 0,0 -7.862138,0 -8.830793,-0.01126 -4.83108,-0.05184 -4.804313,-2.585558 -4.790531,-3.8902037 v -2.729e-4 c 5.27e-4,-0.041734 6.93e-4,-0.082212 0.0014,-0.1212958 0,0 0.01379,-2.2353267 0.01905,-2.3394701 0.180213,-3.1953411 3.206764,-3.1953411 3.206764,-3.1953411 h 14.10603 v 3.423379 H 73.433804 V 10.31944 h 8.276897 z M 66.709381,7.8222807 C 66.728433,6.0627413 65.183921,4.9844903 63.131588,4.5171698 62.476719,4.3679606 61.131202,4.1821519 59.373844,4.1821519 h -4.508288 c -1.760275,0 -3.102876,0.1858087 -3.757742,0.3350179 -2.054981,0.4673205 -3.596883,1.5455715 -3.5778,3.3051109 v 0.011278 c -0.01905,0.2083138 -0.01905,11.9705333 -0.01905,11.9705333 h 4.36094 v -4.44252 H 62.36756 v 4.442521 h 4.369151 c 0,0 0,-11.762219 -0.01905,-11.9705325 V 7.8222824 Z M 62.359312,11.901625 H 51.863652 V 7.8363741 h 10.49566 z M 44.511945,9.6973527 c 0.0055,1.0754373 -0.655131,1.7961373 -1.397195,2.1565023 l 0.0027,0.0028 c 0,0 1.681033,0.365991 1.648169,2.204355 v 3.20378 c -0.01615,2.060772 -2.565146,2.514026 -3.034499,2.542185 v 0.0056 H 25.103417 V 4.1934869 c 0,0 16.76414,-0.028132 17.181553,0.028159 0.930758,0.123863 2.23784,0.6841014 2.22141,3.0517583 -0.0055,0.558845 -5.27e-4,1.386939 0.0048,2.2933931 z M 40.052686,7.3606686 H 29.884596 V 10.41524 h 10.16809 z M 29.881942,16.66234 H 40.27372 V 13.585235 H 29.881942 Z"
     fill="#ffffff"
     id="path2" />
</svg>
