<?xml version="1.0" encoding="UTF-8"?>
<!DOCTYPE svg PUBLIC "-//W3C//DTD SVG 1.1//EN" "http://www.w3.org/Graphics/SVG/1.1/DTD/svg11.dtd">
<!-- Creator: CorelDRAW -->
<svg xmlns="http://www.w3.org/2000/svg" xml:space="preserve" width="67px" height="65px" version="1.1" style="shape-rendering:geometricPrecision; text-rendering:geometricPrecision; image-rendering:optimizeQuality; fill-rule:evenodd; clip-rule:evenodd"
viewBox="0 0 9.72 9.4"
 xmlns:xlink="http://www.w3.org/1999/xlink"
 xmlns:xodm="http://www.corel.com/coreldraw/odm/2003">
 <defs>
  <style type="text/css">
   <![CDATA[
    .fil0 {fill:#675496}
    .fil2 {fill:#A59ABD}
    .fil3 {fill:#BAB0D3}
    .fil1 {fill:white}
   ]]>
  </style>
 </defs>
 <g id="Слой_x0020_1">
  <metadata id="CorelCorpID_0Corel-Layer"/>
  <g id="_1747763912320">
   <polygon class="fil0" points="2.72,0.02 2.67,0.02 2.67,0.04 2.59,0.04 2.59,0.05 2.54,0.05 2.54,0.07 2.49,0.07 2.49,0.08 2.46,0.08 2.46,0.1 2.41,0.1 2.41,0.12 2.39,0.12 2.39,0.13 2.36,0.13 2.36,0.15 2.33,0.15 2.33,0.17 2.29,0.17 2.29,0.18 2.28,0.18 2.28,0.2 2.24,0.2 2.24,0.21 2.23,0.21 2.23,0.23 2.19,0.23 2.19,0.25 2.18,0.25 2.18,0.26 2.14,0.26 2.14,0.3 2.11,0.3 2.11,0.31 2.09,0.31 2.09,0.33 2.08,0.33 2.08,0.35 2.06,0.35 2.06,0.36 2.05,0.36 2.05,0.38 2.03,0.38 2.03,0.4 2.01,0.4 2.01,0.41 2,0.41 2,0.45 1.96,0.45 1.96,0.48 1.95,0.48 1.95,0.5 1.93,0.5 1.93,0.53 1.91,0.53 1.91,0.55 1.9,0.55 1.9,0.58 1.88,0.58 1.88,0.59 1.87,0.59 1.87,0.63 1.85,0.63 1.85,0.64 1.83,0.64 1.83,0.69 1.81,0.69 1.81,0.71 1.8,0.71 1.8,0.74 1.78,0.74 1.78,0.81 1.76,0.81 1.76,0.84 1.75,0.84 1.75,0.91 1.73,0.91 1.73,0.97 1.71,0.97 1.71,1.04 1.7,1.04 1.7,3.2 4.01,3.2 4.01,2.23 2.61,2.23 2.61,1.19 2.62,1.19 2.62,1.14 2.64,1.14 2.64,1.11 2.65,1.11 2.65,1.07 2.67,1.07 2.67,1.04 2.69,1.04 2.69,1.02 2.71,1.02 2.71,1.01 2.72,1.01 2.72,0.99 2.74,0.99 2.74,0.97 2.77,0.97 2.77,0.96 2.81,0.96 2.81,0.94 2.84,0.94 2.84,0.93 2.9,0.93 2.9,0.91 4.13,0.91 4.13,0.93 4.17,0.93 4.17,0.94 4.22,0.94 4.22,0.96 4.26,0.96 4.26,0.97 4.27,0.97 4.27,0.99 4.29,0.99 4.29,1.01 4.31,1.01 4.31,1.02 4.32,1.02 4.32,1.04 4.34,1.04 4.34,1.06 4.35,1.06 4.35,1.09 4.37,1.09 4.37,1.11 4.39,1.11 4.39,1.15 4.4,1.15 4.4,5.15 4.39,5.15 4.39,5.21 4.37,5.21 4.37,5.25 4.35,5.25 4.35,5.28 4.34,5.28 4.34,5.29 4.32,5.29 4.32,5.31 4.31,5.31 4.31,5.33 4.29,5.33 4.29,5.34 4.27,5.34 4.27,5.36 4.26,5.36 4.26,5.38 4.22,5.38 4.22,5.39 4.19,5.39 4.19,5.41 4.13,5.41 4.13,5.43 2.9,5.43 2.9,5.41 2.82,5.41 2.82,5.39 2.81,5.39 2.81,5.38 2.77,5.38 2.77,5.36 2.74,5.36 2.74,5.34 2.72,5.34 2.72,5.33 2.71,5.33 2.71,5.31 2.69,5.31 2.69,5.29 2.67,5.29 2.67,5.26 2.65,5.26 2.65,5.25 2.64,5.25 2.64,5.2 2.62,5.2 2.62,5.15 2.61,5.15 2.61,3.6 1.7,3.6 1.7,5.26 1.71,5.26 1.71,5.36 1.73,5.36 1.73,5.43 1.75,5.43 1.75,5.49 1.76,5.49 1.76,5.53 1.78,5.53 1.78,5.59 1.8,5.59 1.8,5.61 1.81,5.61 1.81,5.64 1.83,5.64 1.83,5.67 1.85,5.67 1.85,5.71 1.87,5.71 1.87,5.74 1.88,5.74 1.88,5.77 1.9,5.77 1.9,5.79 1.91,5.79 1.91,5.81 1.93,5.81 1.93,5.84 1.95,5.84 1.95,5.86 1.96,5.86 1.96,5.87 1.98,5.87 1.98,5.91 2,5.91 2,5.92 2.01,5.92 2.01,5.94 2.03,5.94 2.03,5.96 2.05,5.96 2.05,5.97 2.06,5.97 2.06,5.99 2.08,5.99 2.08,6.01 2.09,6.01 2.09,6.02 2.11,6.02 2.11,6.04 2.13,6.04 2.13,6.05 2.14,6.05 2.14,6.07 2.18,6.07 2.18,6.09 2.19,6.09 2.19,6.1 2.23,6.1 2.23,6.12 2.24,6.12 2.24,6.14 2.28,6.14 2.28,6.15 2.29,6.15 2.29,6.17 2.33,6.17 2.33,6.19 2.36,6.19 2.36,6.2 2.39,6.2 2.39,6.22 2.41,6.22 2.41,6.23 2.46,6.23 2.46,6.25 2.51,6.25 2.51,6.27 2.54,6.27 2.54,6.28 2.62,6.28 2.62,6.3 2.67,6.3 2.67,6.32 2.74,6.32 2.74,6.34 4.13,6.34 4.13,6.35 4.26,6.35 4.26,6.37 4.34,6.37 4.34,6.39 4.4,6.39 4.4,6.4 4.49,6.4 4.49,6.42 4.52,6.42 4.52,6.43 4.55,6.43 4.55,6.45 4.6,6.45 4.6,6.47 4.64,6.47 4.64,6.48 4.65,6.48 4.65,6.5 4.69,6.5 4.69,6.52 4.72,6.52 4.72,6.53 4.75,6.53 4.75,6.55 4.78,6.55 4.78,6.57 4.8,6.57 4.8,6.58 4.82,6.58 4.82,6.6 4.83,6.6 4.83,6.61 4.9,6.61 4.9,6.6 4.91,6.6 4.91,6.58 4.93,6.58 4.93,6.57 4.96,6.57 4.96,6.55 4.98,6.55 4.98,6.53 5.02,6.53 5.02,6.52 5.05,6.52 5.05,6.5 5.07,6.5 5.07,6.48 5.1,6.48 5.1,6.47 5.13,6.47 5.13,6.45 5.18,6.45 5.18,6.43 5.21,6.43 5.21,6.42 5.25,6.42 5.25,6.4 5.31,6.4 5.31,6.39 5.36,6.39 5.36,6.37 5.44,6.37 5.44,6.35 5.58,6.35 5.58,6.34 6.99,6.34 6.99,6.32 7.06,6.32 7.06,6.3 7.13,6.3 7.13,6.28 7.19,6.28 7.19,6.27 7.23,6.27 7.23,6.25 7.29,6.25 7.29,6.23 7.31,6.23 7.31,6.22 7.34,6.22 7.34,6.2 7.37,6.2 7.37,6.19 7.41,6.19 7.41,6.17 7.44,6.17 7.44,6.15 7.46,6.15 7.46,6.14 7.49,6.14 7.49,6.12 7.51,6.12 7.51,6.1 7.54,6.1 7.54,6.09 7.55,6.09 7.55,6.07 7.57,6.07 7.57,6.05 7.6,6.05 7.6,6.04 7.62,6.04 7.62,6.02 7.64,6.02 7.64,6.01 7.65,6.01 7.65,5.99 7.67,5.99 7.67,5.97 7.69,5.97 7.69,5.96 7.7,5.96 7.7,5.94 7.72,5.94 7.72,5.92 7.74,5.92 7.74,5.91 7.75,5.91 7.75,5.87 7.77,5.87 7.77,5.86 7.79,5.86 7.79,5.84 7.8,5.84 7.8,5.81 7.82,5.81 7.82,5.79 7.84,5.79 7.84,5.76 7.85,5.76 7.85,5.72 7.87,5.72 7.87,5.71 7.89,5.71 7.89,5.67 7.9,5.67 7.9,5.64 7.92,5.64 7.92,5.61 7.93,5.61 7.93,5.58 7.95,5.58 7.95,5.53 7.97,5.53 7.97,5.49 7.98,5.49 7.98,5.43 8,5.43 8,5.36 8.02,5.36 8.02,5.28 8.03,5.28 8.03,3.6 7.13,3.6 7.13,5.16 7.11,5.16 7.11,5.2 7.09,5.2 7.09,5.25 7.08,5.25 7.08,5.26 7.06,5.26 7.06,5.29 7.04,5.29 7.04,5.31 7.03,5.31 7.03,5.33 7.01,5.33 7.01,5.34 6.99,5.34 6.99,5.36 6.96,5.36 6.96,5.38 6.95,5.38 6.95,5.39 6.9,5.39 6.9,5.41 6.85,5.41 6.85,5.43 5.63,5.43 5.63,5.41 5.56,5.41 5.56,5.39 5.51,5.39 5.51,5.38 5.48,5.38 5.48,5.36 5.46,5.36 5.46,5.34 5.44,5.34 5.44,5.33 5.43,5.33 5.43,5.31 5.41,5.31 5.41,5.29 5.39,5.29 5.39,5.28 5.38,5.28 5.38,5.25 5.36,5.25 5.36,5.2 5.34,5.2 5.34,5.18 5.33,5.18 5.33,1.19 5.34,1.19 5.34,1.11 5.36,1.11 5.36,1.09 5.38,1.09 5.38,1.06 5.39,1.06 5.39,1.04 5.41,1.04 5.41,1.02 5.43,1.02 5.43,1.01 5.44,1.01 5.44,0.99 5.46,0.99 5.46,0.97 5.48,0.97 5.48,0.96 5.51,0.96 5.51,0.94 5.54,0.94 5.54,0.93 5.61,0.93 5.61,0.91 6.85,0.91 6.85,0.93 6.9,0.93 6.9,0.94 6.95,0.94 6.95,0.96 6.96,0.96 6.96,0.97 6.99,0.97 6.99,0.99 7.03,0.99 7.03,1.02 7.04,1.02 7.04,1.04 7.06,1.04 7.06,1.07 7.08,1.07 7.08,1.11 7.09,1.11 7.09,1.12 7.11,1.12 7.11,1.2 7.13,1.2 7.13,2.23 5.72,2.23 5.72,3.2 8.03,3.2 8.03,1.04 8.02,1.04 8.02,0.97 8,0.97 8,0.89 7.98,0.89 7.98,0.84 7.97,0.84 7.97,0.81 7.95,0.81 7.95,0.76 7.93,0.76 7.93,0.71 7.92,0.71 7.92,0.69 7.9,0.69 7.9,0.66 7.89,0.66 7.89,0.63 7.87,0.63 7.87,0.59 7.85,0.59 7.85,0.58 7.84,0.58 7.84,0.55 7.82,0.55 7.82,0.53 7.8,0.53 7.8,0.5 7.79,0.5 7.79,0.48 7.77,0.48 7.77,0.45 7.75,0.45 7.75,0.43 7.74,0.43 7.74,0.41 7.72,0.41 7.72,0.4 7.7,0.4 7.7,0.38 7.69,0.38 7.69,0.36 7.67,0.36 7.67,0.35 7.65,0.35 7.65,0.33 7.64,0.33 7.64,0.31 7.62,0.31 7.62,0.3 7.6,0.3 7.6,0.28 7.57,0.28 7.57,0.26 7.55,0.26 7.55,0.25 7.54,0.25 7.54,0.23 7.51,0.23 7.51,0.21 7.49,0.21 7.49,0.2 7.47,0.2 7.47,0.18 7.44,0.18 7.44,0.17 7.41,0.17 7.41,0.15 7.37,0.15 7.37,0.13 7.34,0.13 7.34,0.12 7.31,0.12 7.31,0.1 7.29,0.1 7.29,0.08 7.24,0.08 7.24,0.07 7.19,0.07 7.19,0.05 7.13,0.05 7.13,0.04 7.06,0.04 7.06,0.02 6.98,0.02 6.98,0 5.44,0 5.44,0.02 5.39,0.02 5.39,0.04 5.31,0.04 5.31,0.05 5.26,0.05 5.26,0.07 5.21,0.07 5.21,0.08 5.18,0.08 5.18,0.1 5.13,0.1 5.13,0.12 5.1,0.12 5.1,0.13 5.07,0.13 5.07,0.15 5.05,0.15 5.05,0.17 5.02,0.17 5.02,0.18 4.98,0.18 4.98,0.2 4.96,0.2 4.96,0.21 4.93,0.21 4.93,0.23 4.91,0.23 4.91,0.25 4.9,0.25 4.9,0.26 4.83,0.26 4.83,0.25 4.82,0.25 4.82,0.23 4.8,0.23 4.8,0.21 4.78,0.21 4.78,0.2 4.75,0.2 4.75,0.18 4.72,0.18 4.72,0.17 4.69,0.17 4.69,0.15 4.65,0.15 4.65,0.13 4.64,0.13 4.64,0.12 4.6,0.12 4.6,0.1 4.55,0.1 4.55,0.08 4.52,0.08 4.52,0.07 4.47,0.07 4.47,0.05 4.42,0.05 4.42,0.04 4.35,0.04 4.35,0.02 4.29,0.02 4.29,0 2.72,0 "/>
   <path class="fil0" d="M1.04 8.99l-0.02 0 0 0.03 -0.03 0 0 0.02 -0.02 0 0 0.02 -0.01 0 0 0.02 -0.04 0 0 0.01 -0.06 0 0 0.02 -0.51 0 0 -0.51 0.52 0 0 0.01 0.05 0 0 0.02 0.04 0 0 0.02 0.01 0 0 0.01 0.02 0 0 0.02 0.02 0 0 0.01 0.01 0 0 0.04 0.02 0 0 0.03 0.02 0 0 0.18 -0.02 0 0 0.05 0 0zm-0.28 -0.69l0 0.01 -0.43 0 0 -0.44 0.4 0 0 0.02 0.04 0 0 0.01 0.07 0 0 0.02 0.03 0 0 0.01 0.02 0 0 0.02 0.02 0 0 0.02 0.01 0 0 0.03 0.02 0 0 0.2 -0.02 0 0 0.03 -0.03 0 0 0.02 -0.02 0 0 0.02 -0.01 0 0 0.01 -0.04 0 0 0.02 -0.06 0 0 0zm-0.76 1.1l0.82 0 0 -0.01 0.09 0 0 -0.02 0.08 0 0 -0.02 0.05 0 0 -0.01 0.05 0 0 -0.02 0.02 0 0 -0.02 0.03 0 0 -0.01 0.03 0 0 -0.02 0.02 0 0 -0.02 0.01 0 0 -0.01 0.04 0 0 -0.02 0.01 0 0 -0.01 0.02 0 0 -0.02 0.02 0 0 -0.03 0.01 0 0 -0.02 0.02 0 0 -0.02 0.01 0 0 -0.03 0.02 0 0 -0.05 0.02 0 0 -0.05 0.02 0 0 -0.26 -0.02 0 0 -0.07 -0.02 0 0 -0.01 -0.02 0 0 -0.04 -0.01 0 0 -0.03 -0.02 0 0 -0.02 -0.01 0 0 -0.01 -0.02 0 0 -0.04 -0.02 0 0 -0.02 -0.03 0 0 -0.01 -0.02 0 0 -0.02 -0.01 0 0 -0.01 -0.02 0 0 -0.02 -0.03 0 0 -0.03 0.01 0 0 -0.02 0.02 0 0 -0.02 0.02 0 0 -0.01 0.01 0 0 -0.02 0.02 0 0 -0.03 0.02 0 0 -0.03 0.01 0 0 -0.07 0.02 0 0 -0.23 -0.02 0 0 -0.05 -0.01 0 0 -0.05 -0.02 0 0 -0.03 -0.02 0 0 -0.02 -0.01 0 0 -0.02 -0.02 0 0 -0.03 -0.02 0 0 -0.02 -0.03 0 0 -0.01 -0.01 0 0 -0.02 -0.02 0 0 -0.01 -0.03 0 0 -0.02 -0.02 0 0 -0.02 -0.03 0 0 -0.01 -0.05 0 0 -0.02 -0.04 0 0 -0.02 -0.1 0 0 -0.02 -0.13 0 0 -0.01 -0.69 0 0 1.81 0 0z"/>
   <path class="fil0" d="M4.27 8.23l-0.01 0 0 0.04 -0.02 0 0 0.01 -0.02 0 0 0.02 -0.03 0 0 0.01 -0.02 0 0 0.02 -0.04 0 0 0.02 -0.06 0 0 0.01 -0.49 0 0 -0.47 0.48 0 0 0.01 0.07 0 0 0.02 0.03 0 0 0.01 0.05 0 0 0.02 0.01 0 0 0.02 0.02 0 0 0.01 0.02 0 0 0.04 0.01 0 0 0.05 0.02 0 0 0.1 -0.02 0 0 0.06 0 0zm-1.04 1.17l0.35 0 0 -0.74 0.35 0 0 0.02 0.01 0 0 0.01 0.02 0 0 0.04 0.01 0 0 0.03 0.02 0 0 0.02 0.02 0 0 0.03 0.01 0 0 0.03 0.02 0 0 0.02 0.02 0 0 0.03 0.01 0 0 0.02 0.02 0 0 0.03 0.02 0 0 0.03 0.02 0 0 0.02 0.01 0 0 0.03 0.02 0 0 0.02 0.01 0 0 0.04 0.02 0 0 0.03 0.02 0 0 0.01 0.01 0 0 0.04 0.02 0 0 0.01 0.02 0 0 0.04 0.01 0 0 0.03 0.02 0 0 0.01 0.02 0 0 0.04 0.01 0 0 0.01 0.02 0 0 0.04 0.01 0 0 0.03 0.02 0 0 0.02 0.38 0 0 -0.04 -0.02 0 0 -0.03 -0.01 0 0 -0.03 -0.02 0 0 -0.02 -0.01 0 0 -0.03 -0.02 0 0 -0.02 -0.02 0 0 -0.03 -0.01 0 0 -0.03 -0.02 0 0 -0.02 -0.02 0 0 -0.03 -0.01 0 0 -0.02 -0.02 0 0 -0.03 -0.02 0 0 -0.02 -0.01 0 0 -0.03 -0.02 0 0 -0.02 -0.02 0 0 -0.03 -0.01 0 0 -0.04 -0.02 0 0 -0.01 -0.02 0 0 -0.04 -0.01 0 0 -0.01 -0.02 0 0 -0.03 -0.02 0 0 -0.02 -0.01 0 0 -0.03 -0.02 0 0 -0.04 -0.02 0 0 -0.01 -0.01 0 0 -0.04 -0.02 0 0 -0.01 -0.01 0 0 -0.03 -0.02 0 0 -0.02 -0.02 0 0 -0.03 0.02 0 0 -0.02 0.03 0 0 -0.02 0.03 0 0 -0.01 0.04 0 0 -0.02 0.01 0 0 -0.02 0.04 0 0 -0.02 0.01 0 0 -0.01 0.02 0 0 -0.02 0.02 0 0 -0.01 0.01 0 0 -0.02 0.02 0 0 -0.02 0.02 0 0 -0.03 0.01 0 0 -0.02 0.02 0 0 -0.05 0.02 0 0 -0.04 0.01 0 0 -0.04 0.02 0 0 -0.2 -0.02 0 0 -0.08 -0.01 0 0 -0.03 -0.02 0 0 -0.03 -0.02 0 0 -0.04 -0.01 0 0 -0.01 -0.02 0 0 -0.04 -0.02 0 0 -0.01 -0.01 0 0 -0.02 -0.02 0 0 -0.02 -0.02 0 0 -0.01 -0.03 0 0 -0.02 -0.02 0 0 -0.01 -0.01 0 0 -0.02 -0.04 0 0 -0.02 -0.03 0 0 -0.02 -0.05 0 0 -0.01 -0.05 0 0 -0.02 -0.06 0 0 -0.02 -0.1 0 0 -0.01 -0.83 0 0 1.81 0 0z"/>
   <polygon class="fil0" points="5.64,7.62 5.58,7.62 5.58,7.64 5.49,7.64 5.49,7.65 5.44,7.65 5.44,7.67 5.41,7.67 5.41,7.69 5.38,7.69 5.38,7.71 5.34,7.71 5.34,7.72 5.31,7.72 5.31,7.74 5.29,7.74 5.29,7.75 5.26,7.75 5.26,7.77 5.25,7.77 5.25,7.79 5.21,7.79 5.21,7.8 5.2,7.8 5.2,7.82 5.18,7.82 5.18,7.84 5.16,7.84 5.16,7.85 5.15,7.85 5.15,7.87 5.13,7.87 5.13,7.89 5.11,7.89 5.11,7.9 5.1,7.9 5.1,7.92 5.08,7.92 5.08,7.93 5.07,7.93 5.07,7.95 5.05,7.95 5.05,7.97 5.03,7.97 5.03,8 5.02,8 5.02,8.02 5,8.02 5,8.05 4.98,8.05 4.98,8.08 4.96,8.08 4.96,8.1 4.95,8.1 4.95,8.13 4.93,8.13 4.93,8.18 4.91,8.18 4.91,8.23 4.9,8.23 4.9,8.33 4.88,8.33 4.88,8.69 4.9,8.69 4.9,8.76 4.91,8.76 4.91,8.83 4.93,8.83 4.93,8.86 4.95,8.86 4.95,8.91 4.96,8.91 4.96,8.94 4.98,8.94 4.98,8.97 5,8.97 5,8.99 5.02,8.99 5.02,9.02 5.03,9.02 5.03,9.04 5.05,9.04 5.05,9.08 5.07,9.08 5.07,9.09 5.08,9.09 5.08,9.11 5.1,9.11 5.1,9.12 5.11,9.12 5.11,9.14 5.13,9.14 5.13,9.16 5.15,9.16 5.15,9.17 5.18,9.17 5.18,9.21 5.21,9.21 5.21,9.22 5.23,9.22 5.23,9.24 5.26,9.24 5.26,9.25 5.28,9.25 5.28,9.27 5.31,9.27 5.31,9.29 5.34,9.29 5.34,9.3 5.38,9.3 5.38,9.32 5.41,9.32 5.41,9.34 5.48,9.34 5.48,9.35 5.54,9.35 5.54,9.37 5.63,9.37 5.63,9.39 6.04,9.39 6.04,9.37 6.14,9.37 6.14,9.35 6.2,9.35 6.2,9.34 6.23,9.34 6.23,9.32 6.3,9.32 6.3,9.3 6.33,9.3 6.33,9.29 6.37,9.29 6.37,9.27 6.4,9.27 6.4,9.25 6.43,9.25 6.43,9.24 6.47,9.24 6.47,9.22 6.5,9.22 6.5,9.21 6.52,9.21 6.52,9.19 6.53,9.19 6.53,9.17 6.55,9.17 6.55,8.4 5.92,8.4 5.92,8.43 5.91,8.43 5.91,8.46 5.89,8.46 5.89,8.49 5.87,8.49 5.87,8.53 5.86,8.53 5.86,8.55 5.84,8.55 5.84,8.58 5.82,8.58 5.82,8.61 5.8,8.61 5.8,8.63 5.79,8.63 5.79,8.68 6.22,8.68 6.22,9.04 6.17,9.04 6.17,9.06 6.14,9.06 6.14,9.08 6.07,9.08 6.07,9.09 6.01,9.09 6.01,9.11 5.71,9.11 5.71,9.09 5.64,9.09 5.64,9.08 5.58,9.08 5.58,9.06 5.54,9.06 5.54,9.04 5.51,9.04 5.51,9.02 5.48,9.02 5.48,9.01 5.44,9.01 5.44,8.99 5.43,8.99 5.43,8.97 5.41,8.97 5.41,8.96 5.39,8.96 5.39,8.94 5.38,8.94 5.38,8.92 5.36,8.92 5.36,8.91 5.34,8.91 5.34,8.89 5.33,8.89 5.33,8.87 5.31,8.87 5.31,8.84 5.29,8.84 5.29,8.83 5.28,8.83 5.28,8.79 5.26,8.79 5.26,8.76 5.25,8.76 5.25,8.73 5.23,8.73 5.23,8.66 5.21,8.66 5.21,8.33 5.23,8.33 5.23,8.27 5.25,8.27 5.25,8.23 5.26,8.23 5.26,8.2 5.28,8.2 5.28,8.17 5.29,8.17 5.29,8.13 5.31,8.13 5.31,8.12 5.33,8.12 5.33,8.08 5.34,8.08 5.34,8.07 5.36,8.07 5.36,8.05 5.38,8.05 5.38,8.03 5.39,8.03 5.39,8.02 5.43,8.02 5.43,8 5.44,8 5.44,7.98 5.46,7.98 5.46,7.97 5.49,7.97 5.49,7.95 5.53,7.95 5.53,7.93 5.54,7.93 5.54,7.92 5.63,7.92 5.63,7.9 5.67,7.9 5.67,7.89 6.01,7.89 6.01,7.9 6.1,7.9 6.1,7.92 6.15,7.92 6.15,7.93 6.2,7.93 6.2,7.95 6.23,7.95 6.23,7.97 6.25,7.97 6.25,7.98 6.28,7.98 6.28,8 6.32,8 6.32,8.02 6.35,8.02 6.35,8.03 6.37,8.03 6.37,8.05 6.4,8.05 6.4,7.72 6.37,7.72 6.37,7.71 6.33,7.71 6.33,7.69 6.3,7.69 6.3,7.67 6.27,7.67 6.27,7.65 6.19,7.65 6.19,7.64 6.15,7.64 6.15,7.62 6.05,7.62 6.05,7.6 5.64,7.6 "/>
   <polygon class="fil0" points="6.9,9.4 8.12,9.4 8.12,9.11 7.23,9.11 7.23,8.61 8,8.61 8,8.31 7.23,8.31 7.23,7.89 8.08,7.89 8.08,7.59 6.9,7.59 "/>
   <polygon class="fil0" points="2.92,9.11 2.05,9.11 2.05,8.61 2.81,8.61 2.81,8.31 2.05,8.31 2.05,7.89 2.89,7.89 2.89,7.6 1.71,7.6 1.71,9.39 2.92,9.39 "/>
   <polygon class="fil0" points="8.84,7.62 8.79,7.62 8.79,7.64 8.73,7.64 8.73,7.65 8.69,7.65 8.69,7.67 8.65,7.67 8.65,7.69 8.63,7.69 8.63,7.71 8.59,7.71 8.59,7.72 8.58,7.72 8.58,7.74 8.56,7.74 8.56,7.75 8.54,7.75 8.54,7.77 8.53,7.77 8.53,7.79 8.51,7.79 8.51,7.8 8.49,7.8 8.49,7.84 8.48,7.84 8.48,7.85 8.46,7.85 8.46,7.89 8.45,7.89 8.45,7.92 8.43,7.92 8.43,8.02 8.41,8.02 8.41,8.17 8.43,8.17 8.43,8.23 8.45,8.23 8.45,8.27 8.46,8.27 8.46,8.3 8.48,8.3 8.48,8.33 8.49,8.33 8.49,8.36 8.51,8.36 8.51,8.38 8.53,8.38 8.53,8.4 8.54,8.4 8.54,8.41 8.56,8.41 8.56,8.43 8.58,8.43 8.58,8.45 8.61,8.45 8.61,8.46 8.63,8.46 8.63,8.48 8.66,8.48 8.66,8.49 8.68,8.49 8.68,8.51 8.73,8.51 8.73,8.53 8.78,8.53 8.78,8.55 8.83,8.55 8.83,8.56 8.91,8.56 8.91,8.58 9.01,8.58 9.01,8.6 9.11,8.6 9.11,8.61 9.17,8.61 9.17,8.63 9.22,8.63 9.22,8.65 9.27,8.65 9.27,8.66 9.3,8.66 9.3,8.68 9.32,8.68 9.32,8.69 9.35,8.69 9.35,8.73 9.37,8.73 9.37,8.76 9.39,8.76 9.39,8.81 9.4,8.81 9.4,8.91 9.39,8.91 9.39,8.96 9.37,8.96 9.37,8.97 9.35,8.97 9.35,9.01 9.32,9.01 9.32,9.02 9.3,9.02 9.3,9.04 9.27,9.04 9.27,9.06 9.24,9.06 9.24,9.08 9.17,9.08 9.17,9.09 9.14,9.09 9.14,9.11 8.87,9.11 8.87,9.09 8.79,9.09 8.79,9.08 8.71,9.08 8.71,9.06 8.68,9.06 8.68,9.04 8.65,9.04 8.65,9.02 8.59,9.02 8.59,9.01 8.54,9.01 8.54,8.99 8.51,8.99 8.51,8.97 8.48,8.97 8.48,8.96 8.46,8.96 8.46,8.94 8.41,8.94 8.41,9.27 8.45,9.27 8.45,9.29 8.48,9.29 8.48,9.3 8.51,9.3 8.51,9.32 8.58,9.32 8.58,9.34 8.61,9.34 8.61,9.35 8.71,9.35 8.71,9.37 8.78,9.37 8.78,9.39 9.21,9.39 9.21,9.37 9.27,9.37 9.27,9.35 9.34,9.35 9.34,9.34 9.39,9.34 9.39,9.32 9.4,9.32 9.4,9.3 9.45,9.3 9.45,9.29 9.49,9.29 9.49,9.27 9.5,9.27 9.5,9.25 9.54,9.25 9.54,9.24 9.55,9.24 9.55,9.22 9.57,9.22 9.57,9.21 9.59,9.21 9.59,9.19 9.6,9.19 9.6,9.17 9.62,9.17 9.62,9.16 9.63,9.16 9.63,9.12 9.65,9.12 9.65,9.11 9.67,9.11 9.67,9.08 9.68,9.08 9.68,9.02 9.7,9.02 9.7,8.99 9.72,8.99 9.72,8.71 9.7,8.71 9.7,8.66 9.68,8.66 9.68,8.63 9.67,8.63 9.67,8.6 9.65,8.6 9.65,8.58 9.63,8.58 9.63,8.55 9.62,8.55 9.62,8.53 9.6,8.53 9.6,8.51 9.59,8.51 9.59,8.49 9.57,8.49 9.57,8.48 9.54,8.48 9.54,8.45 9.5,8.45 9.5,8.43 9.49,8.43 9.49,8.41 9.45,8.41 9.45,8.4 9.42,8.4 9.42,8.38 9.37,8.38 9.37,8.36 9.34,8.36 9.34,8.35 9.27,8.35 9.27,8.33 9.22,8.33 9.22,8.31 9.14,8.31 9.14,8.3 9.06,8.3 9.06,8.28 8.97,8.28 8.97,8.27 8.92,8.27 8.92,8.25 8.86,8.25 8.86,8.23 8.83,8.23 8.83,8.22 8.79,8.22 8.79,8.2 8.78,8.2 8.78,8.18 8.76,8.18 8.76,8.15 8.74,8.15 8.74,7.98 8.76,7.98 8.76,7.97 8.78,7.97 8.78,7.93 8.81,7.93 8.81,7.92 8.83,7.92 8.83,7.9 8.87,7.9 8.87,7.89 8.96,7.89 8.96,7.87 9.14,7.87 9.14,7.89 9.21,7.89 9.21,7.9 9.27,7.9 9.27,7.92 9.34,7.92 9.34,7.93 9.37,7.93 9.37,7.95 9.43,7.95 9.43,7.97 9.47,7.97 9.47,7.98 9.5,7.98 9.5,8 9.55,8 9.55,7.71 9.5,7.71 9.5,7.69 9.47,7.69 9.47,7.67 9.4,7.67 9.4,7.65 9.37,7.65 9.37,7.64 9.3,7.64 9.3,7.62 9.21,7.62 9.21,7.6 8.84,7.6 "/>
   <polygon class="fil1" points="0.35,9.11 0.86,9.11 0.86,9.09 0.92,9.09 0.92,9.08 0.96,9.08 0.96,9.06 0.97,9.06 0.97,9.04 0.99,9.04 0.99,9.02 1.02,9.02 1.02,8.99 1.04,8.99 1.04,8.94 1.06,8.94 1.06,8.76 1.04,8.76 1.04,8.73 1.02,8.73 1.02,8.69 1.01,8.69 1.01,8.68 0.99,8.68 0.99,8.66 0.97,8.66 0.97,8.65 0.96,8.65 0.96,8.63 0.92,8.63 0.92,8.61 0.87,8.61 0.87,8.6 0.35,8.6 "/>
   <polygon class="fil1" points="3.58,8.36 4.07,8.36 4.07,8.35 4.13,8.35 4.13,8.33 4.17,8.33 4.17,8.31 4.19,8.31 4.19,8.3 4.22,8.3 4.22,8.28 4.24,8.28 4.24,8.27 4.26,8.27 4.26,8.23 4.27,8.23 4.27,8.17 4.29,8.17 4.29,8.07 4.27,8.07 4.27,8.02 4.26,8.02 4.26,7.98 4.24,7.98 4.24,7.97 4.22,7.97 4.22,7.95 4.21,7.95 4.21,7.93 4.16,7.93 4.16,7.92 4.13,7.92 4.13,7.9 4.06,7.9 4.06,7.89 3.58,7.89 "/>
   <polygon class="fil1" points="0.35,8.3 0.82,8.3 0.82,8.28 0.86,8.28 0.86,8.27 0.87,8.27 0.87,8.25 0.89,8.25 0.89,8.23 0.92,8.23 0.92,8.2 0.94,8.2 0.94,8 0.92,8 0.92,7.97 0.91,7.97 0.91,7.95 0.89,7.95 0.89,7.93 0.87,7.93 0.87,7.92 0.84,7.92 0.84,7.9 0.77,7.9 0.77,7.89 0.35,7.89 "/>
   <polygon class="fil2" points="2.92,9.11 2.92,9.39 1.71,9.39 1.71,7.6 2.89,7.6 2.89,7.89 2.9,7.89 2.9,7.59 1.7,7.59 1.7,9.4 2.94,9.4 2.94,9.11 "/>
   <polygon class="fil3" points="0.76,8.3 0.35,8.3 0.35,7.89 0.73,7.89 0.73,7.87 0.33,7.87 0.33,8.31 0.76,8.31 "/>
  </g>
 </g>
</svg>
