<svg class="svg svg-logo" xmlns="http://www.w3.org/2000/svg" viewBox="0 0 110 15"><path fill="#000" d="M3.8 11.2H10c.9 0 1.6.8 1.6 1.7 0 1-.7 1.7-1.6 1.7H1.9A1.9 1.9 0 010 12.8v-11C0 .8.8 0 1.9 0H10c.9 0 1.6.8 1.6 1.7 0 .9-.7 1.6-1.6 1.6H3.8v2.3h5.1c1 0 1.6.7 1.6 1.6 0 1-.7 1.7-1.6 1.7H3.8v2.3zm15.9 3.4h-4.1a1.8 1.8 0 01-2-1.8v-11c0-1 1-1.8 2-1.8H19c2 0 4.4 1.2 4.4 3.7 0 1.4-.6 2.5-1.8 3v.1c2.1.6 3 1.9 3 3.8 0 2.7-2.5 4-4.9 4zM18.3 3h-.8v2.6h.6c.5 0 1.5 0 1.5-1.4 0-.7-.6-1.2-1.3-1.2zm.2 5.7h-1v2.8h1.3c1 0 1.9-.2 2-1.4 0-.9-.7-1.4-2.3-1.4zm15-8.7c1.1 0 2.4.2 3.5 1.1a5.2 5.2 0 011.8 4.1c0 1.8-.8 3.3-2 4.3a5 5 0 01-3.3 1h-3V13c0 1-.8 1.8-1.8 1.8a1.9 1.9 0 01-1.9-1.8V1.8c0-1 .8-1.8 1.9-1.8h4.7zm.7 3.6a2.3 2.3 0 00-1.3-.3h-2.3v3.9h2.3c.5 0 1-.1 1.3-.3.4-.3.7-.8.7-1.7 0-.8-.3-1.3-.7-1.6zm14 11.2c-4.3 0-8-3-8-7.5 0-4.6 3.7-7.5 8-7.5 4.2 0 7.9 3 7.9 7.5 0 4.6-3.7 7.5-8 7.5zm0-11.5a3.8 3.8 0 00-4 4c0 2.3 1.7 4 4 4s3.9-1.7 3.9-4-1.6-4-4-4zm20.2.4c-.5 0-.8-.2-1.4-.3l-1.5-.2a4 4 0 00-4 4c0 2.5 1.7 4.2 4 4.2l1.5-.2 1.6-.4c1 0 1.8.7 1.8 1.7 0 .9-.7 1.5-1.4 1.7-1 .4-2.2.6-3.5.6-4.5 0-7.8-3-7.8-7.5 0-4.3 3.6-7.5 7.9-7.5 1.3 0 2.2.2 3.2.5C69.6.6 70 1 70 2c0 1-.8 1.7-1.7 1.7zm7.6 7.5h6.3c.9 0 1.6.8 1.6 1.7 0 1-.7 1.7-1.6 1.7H74a1.9 1.9 0 01-1.9-1.8v-11c0-1 .8-1.8 1.9-1.8h8.2c.9 0 1.6.8 1.6 1.7 0 .9-.7 1.6-1.6 1.6H76v2.3H81c1 0 1.7.7 1.7 1.6 0 1-.7 1.7-1.6 1.7H76v2.3zm17-7.9V13c0 1-.9 1.8-1.9 1.8a1.9 1.9 0 01-1.9-1.8V3.3h-3c-1 0-1.7-.7-1.7-1.6 0-1 .8-1.7 1.7-1.7H96c.9 0 1.6.8 1.6 1.7 0 .9-.7 1.6-1.6 1.6H93zm9.8 2.4h1.4c2.2 0 5.8.3 5.8 4.4 0 3.4-2.9 4.5-5.4 4.5H101a1.9 1.9 0 01-2-1.8V1.6c0-1 1-1.8 2-1.8s1.8.8 1.8 1.8v4zm1.1 3h-1v2.8h1.3c1.1 0 2-.3 2-1.4 0-.9-.6-1.4-2.2-1.4z"></path></svg>