<?xml version="1.0" encoding="UTF-8"?> <svg xmlns="http://www.w3.org/2000/svg" width="2902" height="1241" viewBox="0 0 2902 1241" fill="none"> <g clip-path="url(#clip0_1469_6)"> <path d="M151.784 149.7V360.114H452.365V495.575H151.784V906.565H0V7.95686H563.316V149.7H151.784ZM1189.37 906.565V501.646H849.155V906.565H697.37V7.95686H849.155V360.114H1189.37V7.95686H1339.36V906.565H1189.37ZM1514.45 7.95686H1666.23V617.01C1666.23 665.374 1680.18 704.527 1708.26 734.882C1736.35 765.03 1774.79 780.106 1823.8 780.106C1878.77 780.106 1921.4 765.455 1951.88 735.72C1982.55 705.989 1997.69 665.585 1997.69 614.076V7.95686H2149.47V626.221C2149.47 718.762 2119.99 790.994 2061.03 843.337C2002.07 895.679 1923.39 921.851 1824.99 921.851C1725.8 921.851 1649.3 896.305 1595.33 845.223C1541.54 794.134 1514.45 720.854 1514.45 625.594V7.95686ZM2585.9 906.565H2324.36V8.58793C2439.69 2.93031 2520.36 -3.51877e-06 2566.57 -3.51877e-06C2655.42 -3.51877e-06 2724.74 19.8921 2774.73 59.8793C2824.73 99.6598 2849.63 156.609 2849.63 230.516C2849.63 301.703 2813.77 358.021 2742.26 399.267C2848.43 438.209 2901.62 518.398 2901.62 639.832C2901.62 721.486 2872.13 786.391 2813.57 834.542C2754.81 882.489 2678.92 906.565 2585.9 906.565ZM2476.14 136.093V351.533C2499.45 352.994 2523.95 353.832 2549.64 353.832C2648.44 353.832 2697.84 314.889 2697.84 236.797C2697.84 167.706 2653.02 133.163 2563.19 133.163C2539.49 133.163 2510.41 134.211 2476.14 136.093V136.093ZM2476.14 475.897V772.781C2506.82 775.707 2531.72 777.176 2550.84 777.176C2618.56 777.176 2667.77 765.03 2698.24 740.957C2728.72 716.876 2744.06 676.682 2744.06 620.781C2744.06 569.693 2729.91 532.422 2701.43 509.186C2672.95 485.736 2623.35 474.222 2552.63 474.222C2537.9 474.222 2512.4 474.639 2476.14 475.897" fill="black"></path> <path d="M78.3251 1166.88H40.2148V1236.02H4.1875V1059.68H90.8C103.149 1059.88 112.673 1061.43 119.34 1064.21C126.049 1066.99 131.69 1071.11 136.311 1076.54C140.157 1080.99 143.181 1085.94 145.43 1091.37C147.64 1096.8 148.785 1102.97 148.785 1109.91C148.785 1118.28 146.657 1126.53 142.404 1134.62C138.195 1142.7 131.2 1148.42 121.467 1151.77C129.603 1155.08 135.37 1159.69 138.766 1165.74C142.16 1171.74 143.876 1180.93 143.876 1193.3V1205.15C143.876 1213.19 144.164 1218.66 144.816 1221.56C145.756 1226.1 148.005 1229.45 151.523 1231.61V1236.02H110.915C109.812 1232.1 108.995 1228.96 108.505 1226.59C107.563 1221.6 107.032 1216.54 106.949 1211.35L106.705 1194.98C106.543 1183.75 104.497 1176.23 100.531 1172.47C96.6044 1168.76 89.2032 1166.88 78.3251 1166.88V1166.88ZM100.735 1134.78C108.094 1131.43 111.737 1124.82 111.737 1114.93C111.737 1104.23 108.177 1097.08 101.104 1093.41C97.0966 1091.33 91.1234 1090.31 83.1088 1090.31H40.2148V1137.68H82.0464C90.3481 1137.68 96.5623 1136.7 100.735 1134.78ZM694.011 1168.06V1059.68H731.512V1168.06C731.512 1186.81 728.567 1201.39 722.757 1211.84C711.882 1231 691.147 1240.55 660.56 1240.55C629.973 1240.55 609.198 1231 598.278 1211.84C592.436 1201.39 589.531 1186.81 589.531 1168.06V1059.68H627.028V1168.06C627.028 1180.2 628.458 1189.06 631.322 1194.61C635.823 1204.54 645.553 1209.48 660.56 1209.48C675.53 1209.48 685.22 1204.54 689.676 1194.61C692.577 1189.06 694.011 1180.2 694.011 1168.06V1168.06ZM1171.64 1210.54C1180.35 1210.54 1187.43 1209.6 1192.87 1207.68C1203.17 1204 1208.32 1197.18 1208.32 1187.22C1208.32 1181.38 1205.75 1176.89 1200.64 1173.7C1195.52 1170.55 1187.51 1167.82 1176.59 1165.41L1157.91 1161.24C1139.5 1157.08 1126.82 1152.59 1119.79 1147.73C1107.89 1139.6 1101.92 1126.85 1101.92 1109.54C1101.92 1093.78 1107.69 1080.63 1119.18 1070.17C1130.67 1059.76 1147.6 1054.53 1169.84 1054.53C1188.49 1054.53 1204.36 1059.43 1217.48 1069.27C1230.61 1079.16 1237.52 1093.45 1238.13 1112.2H1202.68C1202.07 1101.58 1197.41 1094.02 1188.78 1089.57C1183.05 1086.63 1175.89 1085.16 1167.35 1085.16C1157.86 1085.16 1150.26 1087.08 1144.57 1090.88C1138.93 1094.72 1136.07 1100.07 1136.07 1106.93C1136.07 1113.22 1138.89 1117.92 1144.45 1121.06C1148.05 1123.1 1155.73 1125.55 1167.47 1128.33L1197.9 1135.64C1211.23 1138.82 1221.29 1143.11 1228.07 1148.42C1238.62 1156.75 1243.9 1168.76 1243.9 1184.44C1243.9 1200.57 1237.73 1213.93 1225.38 1224.59C1213.07 1235.24 1195.61 1240.55 1173.12 1240.55C1150.09 1240.55 1132.02 1235.32 1118.81 1224.83C1105.64 1214.34 1099.06 1199.92 1099.06 1181.58H1134.27C1135.41 1189.63 1137.58 1195.67 1140.85 1199.63C1146.86 1206.9 1157.13 1210.54 1171.64 1210.54V1210.54ZM1744.31 1210.54C1753.02 1210.54 1760.09 1209.6 1765.53 1207.68C1775.84 1204 1780.99 1197.18 1780.99 1187.22C1780.99 1181.38 1778.41 1176.89 1773.3 1173.7C1768.19 1170.55 1760.17 1167.82 1749.26 1165.41L1730.57 1161.24C1712.17 1157.08 1699.49 1152.59 1692.46 1147.73C1680.56 1139.6 1674.59 1126.85 1674.59 1109.54C1674.59 1093.78 1680.35 1080.63 1691.84 1070.17C1703.34 1059.76 1720.26 1054.53 1742.51 1054.53C1761.16 1054.53 1777.02 1059.43 1790.15 1069.27C1803.28 1079.16 1810.19 1093.45 1810.8 1112.2H1775.35C1774.73 1101.58 1770.07 1094.02 1761.44 1089.57C1755.72 1086.63 1748.56 1085.16 1740.02 1085.16C1730.53 1085.16 1722.92 1087.08 1717.24 1090.88C1711.59 1094.72 1708.73 1100.07 1708.73 1106.93C1708.73 1113.22 1711.55 1117.92 1717.12 1121.06C1720.71 1123.1 1728.4 1125.55 1740.14 1128.33L1770.56 1135.64C1783.89 1138.82 1793.95 1143.11 1800.74 1148.42C1811.29 1156.75 1816.57 1168.76 1816.57 1184.44C1816.57 1200.57 1810.39 1213.93 1798.04 1224.59C1785.74 1235.24 1768.27 1240.55 1745.78 1240.55C1722.76 1240.55 1704.68 1235.32 1691.48 1224.83C1678.31 1214.34 1671.72 1199.92 1671.72 1181.58H1706.93C1708.08 1189.63 1710.24 1195.67 1713.52 1199.63C1719.53 1206.9 1729.79 1210.54 1744.31 1210.54V1210.54ZM2250.03 1059.68H2286.67V1236.02H2250.03V1059.68ZM2824.46 1199.75H2759.44L2747.21 1236.02H2708.61L2771.63 1059.68H2813.34L2875.86 1236.02H2835.87L2824.46 1199.75ZM2814.16 1169.37L2792.11 1099.98L2769.38 1169.37H2814.16Z" fill="black"></path> </g> <defs> <clipPath id="clip0_1469_6"> <rect width="2902" height="1241" fill="white"></rect> </clipPath> </defs> </svg> 